<?xml version="1.0" standalone="no"?>
<!DOCTYPE svg PUBLIC "-//W3C//DTD SVG 20010904//EN"
 "http://www.w3.org/TR/2001/REC-SVG-20010904/DTD/svg10.dtd">
<svg version="1.0" xmlns="http://www.w3.org/2000/svg"
 width="640.000000pt" height="640.000000pt" viewBox="0 0 640.000000 640.000000"
 preserveAspectRatio="xMidYMid meet">
<metadata>
Created by potrace 1.16, written by Peter Selinger 2001-2019
</metadata>
<g transform="translate(0.000000,640.000000) scale(0.100000,-0.100000)"
fill="#000000" stroke="none">
<path d="M5030 6174 c-8 -1 -260 -5 -560 -8 -1050 -9 -1658 -15 -2020 -21
-201 -3 -826 -5 -1390 -6 -564 -1 -1033 -3 -1043 -6 -16 -4 -17 -84 -17 -1549
l0 -1544 36 0 c21 0 33 -4 29 -10 -3 -6 -19 -8 -36 -5 l-29 5 0 -560 c0 -407
3 -560 11 -560 8 0 8 -4 0 -14 -8 -9 -11 -105 -10 -319 l0 -305 62 15 c34 8
77 11 96 8 l33 -6 -23 -22 c-23 -21 -35 -24 -126 -26 -43 -1 -43 -1 -43 -37 0
-35 1 -36 30 -31 23 5 32 2 40 -13 12 -22 -3 -27 -30 -10 -36 23 -40 -3 -40
-286 0 -239 2 -274 15 -274 9 0 18 6 21 14 9 23 124 47 124 26 0 -6 11 -10 25
-10 14 0 25 4 25 9 0 5 21 12 48 15 64 9 154 36 173 53 9 7 23 11 32 8 8 -4
18 -2 22 4 12 20 22 11 17 -14 -2 -14 -11 -25 -18 -25 -8 0 -14 -5 -14 -10 0
-7 7 -7 21 0 24 14 53 -5 44 -28 -4 -10 0 -13 15 -9 11 3 22 2 25 -3 2 -4 15
-5 29 -3 13 3 27 0 30 -6 5 -8 -20 -11 -81 -12 -112 0 -198 -6 -298 -21 -79
-11 -128 -15 -212 -17 l-43 -1 1 -132 c1 -73 4 -122 6 -109 3 15 7 20 12 12 6
-8 18 -8 50 4 24 8 54 15 68 15 13 0 36 6 51 14 15 8 45 13 67 11 22 -1 47 1
56 6 10 5 29 3 47 -3 26 -10 42 -9 89 6 117 37 234 88 252 110 11 13 10 17
-10 24 -13 5 -52 7 -86 4 -41 -3 -63 -1 -63 6 0 6 8 11 17 10 10 0 58 2 107 5
74 5 91 9 103 27 17 25 45 27 36 3 -7 -19 -10 -20 91 57 59 45 156 161 156
187 0 8 -4 12 -8 9 -5 -3 -32 -7 -61 -10 -46 -4 -54 -2 -58 15 -5 19 -23 27
-23 10 0 -6 -8 -9 -18 -9 -9 0 -29 -3 -45 -7 -21 -6 -27 -4 -27 9 0 9 9 17 23
18 12 0 31 2 42 2 11 1 29 7 40 13 11 6 39 16 63 22 46 13 61 33 42 56 -7 9
-22 12 -43 8 -90 -15 -97 -15 -97 -3 0 7 7 10 15 6 8 -3 15 -3 15 0 0 2 -12 9
-27 15 -47 18 -4 30 89 27 l83 -3 -3 -43 c-3 -51 9 -49 37 6 27 55 30 75 36
248 3 87 10 195 15 239 17 138 30 266 40 377 5 60 14 116 19 127 9 17 6 20
-37 26 -86 13 -138 54 -177 140 -13 28 -30 57 -39 64 -9 7 -16 19 -16 26 0 7
-18 52 -40 99 -21 47 -44 114 -50 149 -6 34 -15 76 -21 92 -11 36 -16 87 -25
257 -8 143 2 194 60 322 60 132 177 197 269 150 38 -20 65 -48 108 -111 18
-27 34 -50 36 -53 3 -3 29 -5 59 -6 94 -1 133 -63 140 -222 2 -53 4 -99 4
-102 1 -3 8 11 17 30 12 26 17 31 20 18 4 -15 7 -16 17 -5 19 19 30 57 16 57
-6 0 -3 11 8 25 11 14 28 48 38 76 17 46 21 50 44 44 14 -4 45 -17 70 -30 138
-71 172 -86 182 -83 7 3 -15 18 -47 35 -167 85 -195 101 -207 110 -7 5 -51 20
-98 33 -47 12 -96 26 -110 31 l-25 7 26 1 c34 1 197 -46 226 -65 13 -8 50 -21
83 -30 60 -15 114 -34 157 -56 20 -10 21 -15 16 -97 -12 -187 26 -289 156
-414 140 -134 189 -151 471 -156 58 -1 123 -6 144 -11 22 -5 44 -7 48 -4 4 3
8 -2 8 -11 0 -10 -5 -13 -12 -9 -10 6 -10 4 0 -8 11 -14 8 -21 -17 -47 -25
-25 -31 -28 -31 -14 0 14 -3 12 -15 -7 -17 -29 -21 -38 -30 -65 -5 -15 -8 -16
-14 -6 -11 16 -20 2 -23 -33 -1 -14 -8 -26 -15 -26 -6 0 -15 -5 -19 -12 -4 -6
-3 -8 2 -5 6 3 15 -3 22 -14 10 -16 9 -19 -3 -19 -8 0 -14 -4 -12 -9 1 -5 -7
-17 -18 -25 -20 -15 -20 -15 2 -16 18 0 22 -7 25 -37 3 -35 28 -61 28 -30 0 9
9 18 20 22 25 8 130 114 130 131 0 8 5 14 11 14 5 0 7 5 3 12 -5 7 -1 9 12 6
15 -4 19 1 20 26 1 17 4 48 6 69 3 21 1 40 -4 43 -5 3 -1 12 9 20 17 13 16 13
-7 10 -14 -3 -29 -5 -35 -5 -5 -1 -3 -6 5 -11 8 -5 10 -10 4 -10 -6 0 -14 3
-18 7 -8 8 50 60 76 69 9 3 27 22 40 42 12 20 66 98 118 172 53 74 116 169
141 209 59 101 100 141 144 141 31 0 63 -20 66 -41 2 -12 5 -21 12 -39 3 -8 9
-46 11 -85 10 -129 23 -187 60 -270 13 -27 24 -68 24 -90 2 -48 -15 -105 -31
-105 -19 -1 -54 -35 -58 -55 -3 -11 -28 -31 -63 -49 -54 -27 -61 -28 -90 -16
-29 13 -123 18 -156 9 -8 -3 -40 -19 -71 -37 -31 -17 -62 -32 -68 -32 -6 0
-11 -5 -11 -11 0 -6 -7 -9 -15 -5 -32 12 -13 -11 27 -34 41 -23 102 -28 188
-16 30 4 83 -21 75 -34 -4 -6 0 -10 7 -10 7 0 0 -12 -15 -26 -15 -14 -25 -29
-22 -34 3 -5 -4 -14 -15 -20 -11 -6 -19 -14 -19 -18 3 -20 -2 -32 -14 -32 -8
0 -18 -16 -24 -35 -7 -22 -8 -35 -1 -35 5 0 7 -9 3 -20 -5 -15 0 -23 19 -31
14 -7 33 -23 41 -36 15 -23 15 -23 -17 -23 -35 0 -258 -54 -366 -89 -63 -19
-64 -19 -83 0 -10 10 -19 24 -19 30 0 5 -5 7 -11 4 -6 -4 -13 2 -16 14 -5 22
-23 29 -23 10 0 -6 -6 -7 -12 -2 -21 12 -51 9 -71 -7 -50 -42 -65 -63 -60 -78
3 -9 3 -14 -2 -10 -12 11 -67 -104 -55 -116 6 -6 10 -6 10 -2 0 5 6 4 13 -2
15 -12 57 -5 57 10 0 5 5 6 11 2 6 -3 14 -3 18 2 3 5 26 20 51 33 42 21 55 23
155 19 80 -3 120 -9 147 -23 20 -10 35 -22 33 -26 -3 -4 2 -9 10 -13 8 -3 15
-1 15 4 0 6 9 1 20 -10 11 -11 20 -29 20 -40 0 -11 5 -20 10 -20 6 0 10 4 10
10 0 24 38 29 75 10 21 -11 43 -21 49 -24 7 -3 5 -10 -6 -19 -10 -8 -15 -17
-11 -20 3 -4 1 -7 -4 -7 -6 0 -13 6 -16 12 -3 10 -9 10 -23 2 -11 -6 -33 -7
-51 -3 -19 3 -33 2 -33 -3 0 -13 -72 2 -88 19 -21 20 -43 13 -54 -18 -6 -16
-45 -19 -68 -4 -7 4 -6 -1 2 -14 7 -12 17 -21 21 -21 5 0 7 -6 5 -12 -3 -7
-11 -13 -19 -13 -8 0 -13 -8 -11 -19 3 -13 -1 -17 -12 -13 -8 3 -20 -1 -27 -9
-8 -9 -21 -13 -35 -10 -13 4 -26 2 -29 -4 -3 -5 -17 -10 -29 -10 -13 0 -36 -6
-50 -14 -23 -12 -24 -15 -11 -26 12 -10 13 -16 3 -28 -11 -13 -10 -15 4 -9 9
3 19 1 22 -6 2 -7 5 -6 5 4 1 16 31 23 31 7 0 -4 13 -8 28 -8 16 0 39 -10 52
-23 14 -12 36 -23 50 -25 53 -5 107 -4 152 3 66 11 130 -9 179 -55 28 -26 39
-44 39 -66 0 -36 -7 -46 -43 -62 -20 -8 -27 -17 -23 -28 4 -10 0 -14 -12 -12
-11 2 -17 -4 -17 -17 0 -11 -5 -20 -10 -20 -6 0 -16 -4 -22 -8 -7 -5 -13 -5
-13 -1 0 4 -6 0 -13 -10 -10 -14 -22 -17 -48 -14 -19 3 -42 1 -53 -4 -13 -7
-21 -6 -26 2 -6 10 -16 10 -44 0 -32 -10 -40 -10 -56 5 -10 9 -23 14 -29 11
-5 -4 -19 4 -30 16 l-21 22 0 -23 c0 -19 -3 -21 -14 -12 -11 9 -16 9 -21 0 -4
-6 -1 -15 6 -20 12 -8 12 -11 -1 -19 -11 -7 -17 -4 -25 15 -8 18 -14 22 -25
15 -23 -15 -40 -12 -41 8 0 14 -2 14 -9 -3 -7 -17 -9 -16 -10 10 -2 30 -2 30
-10 5 -5 -16 -8 -19 -9 -8 -1 10 -7 15 -15 12 -14 -5 -41 16 -48 38 -4 10 -8
10 -21 -1 -12 -9 -21 -10 -29 -3 -7 5 -24 13 -37 17 -20 6 -23 4 -18 -10 5
-11 3 -15 -5 -12 -7 2 -12 10 -11 18 1 8 -16 23 -39 33 -23 11 -37 21 -30 24
7 2 12 13 12 25 -1 20 -2 20 -11 5 -5 -10 -16 -18 -24 -18 -7 0 -21 -7 -29
-16 -21 -21 -49 -14 -56 13 -4 17 -9 20 -20 13 -22 -14 -28 -12 -33 13 l-4 22
-2 -22 c-1 -25 -28 -32 -37 -9 -3 8 -17 17 -32 21 -15 4 -35 14 -44 22 -21 18
-23 11 -7 -19 10 -19 9 -20 -20 -16 -17 2 -32 0 -34 -6 -2 -5 -19 1 -37 14
-19 14 -43 26 -55 27 -11 2 -24 9 -30 16 -15 18 -45 20 -45 2 0 -8 7 -15 15
-15 8 0 15 -7 15 -15 0 -8 14 -27 30 -42 17 -14 30 -33 30 -41 0 -9 3 -12 7
-9 8 9 50 -37 58 -65 4 -13 14 -31 23 -41 8 -9 12 -20 9 -23 -7 -7 74 -70 85
-66 5 1 7 -1 6 -6 -4 -15 33 -71 51 -77 29 -9 73 -57 67 -72 -3 -8 -2 -12 3
-9 5 3 11 -1 15 -9 3 -8 12 -15 21 -15 9 0 18 -12 22 -30 6 -33 7 -34 32 -21
27 15 39 1 46 -54 2 -11 7 -31 12 -44 8 -19 5 -29 -9 -43 -16 -16 -17 -22 -7
-34 10 -12 8 -17 -6 -28 -16 -12 -16 -15 -1 -43 14 -28 14 -32 0 -44 -8 -7
-13 -18 -10 -25 6 -16 -19 -26 -48 -18 -18 4 -22 11 -18 30 2 14 0 24 -7 24
-6 0 -11 -6 -11 -12 0 -10 -3 -9 -9 1 -10 16 -31 6 -31 -14 0 -11 -23 -22 -55
-25 -5 -1 -13 -10 -17 -21 -4 -11 -12 -18 -17 -14 -5 3 -13 0 -17 -6 -4 -8 -9
-7 -15 2 -7 12 -9 12 -9 0 0 -9 -8 -11 -25 -7 -20 5 -25 3 -25 -14 0 -19 6
-20 627 -17 l628 2 2 30 c1 17 11 59 22 95 10 36 31 105 46 155 15 50 32 103
38 119 10 27 11 27 24 10 7 -10 13 -33 13 -52 0 -19 4 -31 10 -27 14 8 13 1
-5 -42 -17 -41 -12 -75 10 -66 8 3 12 9 9 14 -3 5 4 9 15 9 20 0 25 -9 22 -37
-1 -6 9 -15 21 -19 31 -11 34 -11 68 -13 18 0 33 -8 37 -16 7 -21 2 -25 -38
-30 -19 -3 -50 -7 -70 -10 -22 -4 -40 -2 -44 4 -3 6 -11 11 -16 11 -6 0 -8 -4
-5 -9 4 -5 0 -11 -6 -14 -61 -21 162 -29 233 -7 34 10 45 18 41 28 -4 12 0 14
21 8 15 -3 57 -2 94 4 110 15 323 17 323 3 0 -9 -22 -13 -74 -13 -41 0 -78 -5
-81 -10 -4 -6 -16 -9 -28 -8 -41 5 -162 -24 -184 -44 -14 -13 -40 -22 -75 -24
-29 -3 -54 -9 -56 -14 -2 -6 -10 -10 -18 -10 -8 0 -14 -7 -14 -15 0 -13 166
-15 1430 -15 l1430 0 -1 73 c0 39 -4 81 -8 92 -7 17 -9 16 -15 -12 -4 -18 -12
-33 -18 -33 -6 0 -8 7 -4 15 4 11 -1 15 -18 15 -12 0 -26 -3 -30 -8 -7 -7 -15
-8 -83 -13 -18 -1 -33 -6 -33 -11 0 -4 -4 -8 -10 -8 -5 0 -10 7 -10 15 0 8 6
15 13 15 6 0 19 5 27 10 33 22 -19 29 -230 30 -118 1 -221 1 -227 0 -7 0 -26
-2 -43 -3 -31 -2 -40 -12 -17 -20 6 -2 8 -8 4 -13 -4 -4 -16 -4 -25 2 -9 6
-27 8 -40 5 -34 -9 -143 -1 -136 10 3 5 1 9 -5 9 -21 0 -21 -21 1 -29 21 -9
20 -10 -12 -11 -19 -1 -74 -3 -122 -5 -48 -2 -90 1 -93 6 -4 5 2 9 12 10 16 0
16 1 -2 9 -19 7 -18 8 7 15 15 4 36 4 48 0 19 -6 21 -4 16 13 -7 22 2 26 99
37 72 9 135 26 135 37 0 6 7 8 15 4 8 -3 15 -1 15 4 0 6 11 10 25 10 14 0 25
-5 25 -12 0 -6 6 -4 13 6 13 18 14 18 21 1 5 -13 9 -15 19 -6 11 8 17 5 27
-14 10 -20 16 -22 32 -14 10 5 24 7 30 3 7 -4 8 -3 4 4 -4 8 0 12 11 12 11 0
24 5 30 11 13 13 6 42 -8 33 -5 -3 -26 -2 -46 2 l-38 8 40 12 40 12 -32 1
c-22 1 -33 6 -33 15 0 19 20 25 48 15 15 -6 22 -5 22 4 0 8 3 8 9 -2 6 -9 11
-10 15 -2 4 6 14 11 23 11 14 0 14 -3 -2 -20 -14 -16 -16 -25 -8 -43 9 -19 8
-26 -6 -34 -9 -6 -13 -14 -8 -19 4 -4 20 7 36 25 27 30 29 31 34 11 4 -17 12
-21 39 -20 65 4 80 1 74 -15 -3 -9 0 -15 8 -15 8 0 17 7 20 16 9 22 8 24 -9
24 -9 0 -15 6 -14 13 3 27 -2 38 -17 35 -10 -2 -19 3 -21 10 -3 7 4 12 16 12
12 0 21 5 21 10 0 6 -4 10 -10 10 -5 0 -10 7 -10 16 0 10 -5 14 -16 10 -8 -3
-12 -2 -9 4 8 14 42 13 47 -1 3 -9 9 -9 25 0 27 14 66 15 58 1 -3 -5 -15 -10
-26 -10 -11 0 -17 -4 -14 -10 3 -5 15 -10 26 -10 11 0 18 -4 14 -10 -3 -5 -11
-7 -18 -4 -7 2 -20 -1 -30 -8 -15 -11 -8 -13 43 -13 38 -1 59 3 57 10 -3 6 17
11 49 11 40 1 54 -2 54 -12 0 -9 11 -14 29 -14 23 0 28 -4 26 -23 -1 -12 0
-14 2 -4 2 9 11 17 18 17 11 0 13 -8 8 -31 -5 -25 -3 -31 8 -27 22 7 17 61 -7
73 -23 11 -21 35 2 35 9 0 13 -4 9 -9 -3 -5 -1 -12 4 -16 7 -3 10 128 11 364
0 324 -1 370 -15 365 -8 -3 -27 4 -42 16 -25 20 -25 22 -5 16 40 -13 62 2 62
40 0 27 -4 34 -19 34 -31 0 -33 16 -6 34 21 14 25 24 25 66 l0 49 -37 -6 c-20
-4 -47 -17 -59 -30 -21 -22 -28 -24 -77 -18 -36 5 -57 3 -61 -4 -4 -6 -17 -11
-29 -10 l-22 0 21 9 c21 8 39 38 29 48 -3 3 -5 1 -5 -4 0 -6 -16 -16 -35 -23
-19 -7 -35 -18 -35 -24 0 -8 -3 -8 -9 1 -4 7 -16 13 -27 13 -59 -1 -226 -11
-269 -16 -36 -4 -55 -2 -70 9 -19 14 -15 15 45 17 36 1 70 3 75 4 6 1 37 5 70
10 33 4 69 9 80 11 11 2 55 4 98 5 48 1 77 6 77 13 0 6 5 4 10 -4 7 -11 12
-12 18 -3 7 11 105 21 127 13 6 -2 27 -1 48 3 l37 8 0 187 0 188 -127 -4
c-149 -3 -173 1 -173 28 0 25 -12 25 -35 0 -17 -18 -31 -20 -182 -20 -151 0
-164 1 -161 18 2 11 18 20 46 26 23 6 42 13 42 17 0 4 27 5 60 2 46 -4 63 -1
75 11 12 12 36 16 85 16 58 0 71 3 80 19 17 32 12 36 -35 33 -43 -4 -45 -3
-41 19 2 15 10 23 20 23 9 -1 16 4 16 12 0 8 -7 14 -16 14 -8 0 -12 5 -8 11 4
7 20 -2 43 -24 20 -19 46 -40 59 -46 12 -7 22 -21 22 -31 0 -11 6 -20 13 -21
6 0 33 -2 59 -3 56 -2 66 -9 44 -31 -19 -20 -20 -26 -3 -19 16 7 57 71 57 90
0 8 7 28 15 45 22 41 24 96 7 142 -17 44 -12 189 7 225 14 26 15 162 1 162 -5
0 -10 -5 -10 -11 0 -5 -4 -7 -10 -4 -16 10 -11 22 13 30 12 4 25 7 30 6 4 -1
7 35 7 78 0 75 -1 80 -22 84 l-23 4 23 2 c21 1 22 5 22 85 0 64 -4 87 -16 97
-13 10 -17 10 -24 0 -4 -8 -13 -12 -20 -9 -16 5 -24 48 -10 48 6 0 10 -10 10
-22 0 -13 4 -18 8 -12 11 17 40 24 45 11 3 -7 6 209 6 480 1 388 -1 492 -11
496 -10 4 -10 6 0 6 9 1 12 191 12 916 l0 916 -22 -12 c-18 -10 -20 -9 -15 6
4 9 7 19 7 21 0 2 7 4 15 4 13 0 15 36 15 260 l0 260 -677 -1 c-373 -1 -685
-3 -693 -5z m-952 -490 c32 -13 62 -15 212 -8 96 4 227 8 290 8 212 -1 554 -2
633 -3 43 0 88 4 99 10 16 8 23 8 29 -2 8 -12 10 -12 18 0 5 8 11 9 15 3 4 -6
14 -9 24 -8 83 16 224 16 299 1 48 -10 103 -14 130 -11 27 3 73 8 103 12 45 5
58 3 69 -10 12 -14 10 -16 -18 -16 -22 0 -30 -4 -25 -12 5 -8 2 -9 -10 -5 -19
7 -60 -15 -49 -26 3 -4 -6 -7 -20 -7 -20 0 -28 6 -33 25 -7 27 -20 33 -26 13
-4 -10 -47 -14 -164 -15 -87 -1 -193 -6 -234 -11 -119 -14 -724 -5 -789 12
-36 9 -64 11 -85 5 -16 -5 -51 -8 -76 -8 -25 1 -83 -5 -130 -14 -48 -8 -120
-13 -166 -11 -70 3 -86 1 -107 -16 -28 -22 -64 -25 -116 -10 -18 5 -116 10
-217 10 -101 1 -184 6 -184 10 0 5 -54 9 -120 9 -103 0 -121 -2 -129 -17 -8
-14 -26 -17 -103 -19 -51 -1 -123 -5 -160 -8 -38 -4 -68 -3 -68 1 0 17 15 31
39 39 17 5 20 9 11 15 -9 6 -6 11 11 21 17 9 91 14 244 16 419 7 471 9 610 22
77 7 142 14 144 17 6 6 8 6 49 -12z m-1113 -60 c1 -18 -4 -21 -26 -20 -18 1
-25 -2 -22 -11 3 -7 14 -13 24 -13 10 0 19 -4 19 -9 0 -13 -131 -6 -158 8 -12
6 -22 17 -22 23 0 6 -10 2 -23 -10 -18 -17 -37 -22 -97 -23 -104 -4 -200 2
-206 13 -3 4 2 8 10 8 9 0 16 4 16 8 0 14 42 12 71 -4 32 -16 89 -19 89 -4 0
5 -13 7 -30 5 -33 -4 -33 -4 -24 19 6 16 54 23 54 9 0 -5 5 -15 10 -23 7 -12
13 -11 35 10 23 22 39 26 123 31 145 9 155 8 157 -17z m-599 -1293 c5 1 15 -9
21 -22 7 -13 13 -20 13 -16 0 5 6 5 13 0 28 -17 39 -12 33 15 -6 26 -6 26 9 8
16 -21 18 -32 15 -86 -2 -49 20 -26 27 29 3 22 10 41 15 41 5 0 7 -4 3 -9 -3
-5 -1 -12 5 -16 5 -3 10 -1 10 5 0 6 9 21 21 33 l20 22 -11 -30 -11 -30 23 22
c30 27 59 35 79 20 22 -18 79 -103 79 -120 0 -18 28 -75 41 -82 5 -4 8 4 6 16
-3 31 21 35 34 5 7 -14 16 -23 21 -20 4 3 6 10 3 15 -11 17 6 31 21 18 8 -6
27 -9 46 -5 26 5 36 2 44 -12 10 -15 7 -20 -17 -31 -24 -11 -33 -11 -47 0 -16
12 -16 12 -1 -5 15 -16 21 -17 53 -5 41 15 52 9 36 -20 -11 -22 -35 -28 -45
-11 -3 6 -12 10 -18 10 -7 0 -6 -4 3 -11 11 -7 6 -8 -20 -3 -19 3 -40 10 -46
15 -6 5 -14 5 -18 1 -4 -4 -14 2 -22 12 -7 11 -16 17 -19 14 -4 -3 4 -17 17
-30 25 -27 95 -50 144 -49 20 1 34 -4 38 -14 3 -8 14 -15 24 -15 29 0 43 -20
26 -37 -7 -8 -19 -11 -25 -8 -5 4 -25 9 -42 12 -18 3 -38 10 -45 15 -7 6 -15
9 -17 6 -3 -3 6 -11 20 -18 14 -7 25 -19 25 -26 0 -15 46 -64 54 -57 2 3 10 2
16 -2 8 -5 8 -11 -1 -21 -9 -11 -8 -14 4 -14 8 0 18 6 20 13 4 8 6 9 6 0 1 -6
-6 -18 -14 -27 -8 -8 -15 -19 -15 -25 0 -6 -6 -11 -14 -11 -8 0 -17 -7 -20
-16 -7 -19 3 -64 15 -64 5 0 9 -7 9 -16 0 -11 7 -14 29 -11 17 3 35 8 40 12 6
3 11 1 11 -4 0 -6 8 -11 18 -11 13 0 14 2 4 9 -10 6 -8 10 9 14 13 4 25 4 28
2 2 -3 -1 -5 -7 -5 -7 0 -12 -5 -12 -10 0 -6 6 -10 13 -9 6 1 20 -1 30 -6 12
-5 25 0 43 18 25 25 27 25 50 10 14 -9 23 -22 20 -29 -3 -7 6 -17 22 -23 l27
-9 -30 -2 c-18 -2 -23 -4 -12 -7 9 -2 17 -9 17 -14 0 -10 49 -34 63 -30 42 9
69 6 86 -10 11 -11 27 -19 36 -19 9 0 19 -8 22 -17 12 -30 33 -46 63 -45 16 0
36 -8 46 -19 12 -13 21 -16 29 -9 19 16 39 -14 26 -38 -6 -11 -7 -23 -3 -27 4
-4 -4 -4 -18 0 -14 4 -31 14 -37 23 -7 9 -13 12 -13 6 1 -13 23 -41 35 -42 6
-1 10 -8 10 -14 0 -7 -7 -12 -16 -10 -12 2 -15 -5 -11 -28 3 -18 0 -30 -7 -30
-6 0 -11 15 -11 34 0 19 -4 38 -10 41 -5 3 -10 2 -10 -4 0 -5 -13 -30 -30 -54
-16 -25 -30 -50 -30 -57 0 -6 -5 -8 -11 -5 -6 4 -16 -1 -23 -10 -10 -14 -16
-15 -39 -4 -28 12 -36 29 -15 29 6 0 9 3 6 6 -4 3 -15 1 -26 -5 -31 -16 -72 2
-65 28 3 12 1 21 -4 21 -16 0 -45 -38 -38 -49 3 -6 2 -11 -4 -11 -5 0 -13 5
-16 10 -3 6 -17 7 -31 4 -14 -4 -24 -2 -23 2 4 21 -2 34 -15 34 -8 0 -16 -3
-18 -8 -5 -12 -88 -41 -88 -31 0 5 -10 3 -22 -5 -18 -12 -32 -13 -68 -5 -24 6
-53 8 -62 6 -10 -3 -18 -2 -18 2 0 3 -26 5 -57 4 -37 -1 -95 8 -158 25 -86 22
-120 26 -245 26 -106 -1 -164 -6 -214 -19 -71 -18 -203 -83 -245 -119 -36 -33
-78 -97 -92 -144 l-12 -43 -46 6 c-49 7 -215 52 -242 66 -24 12 -41 85 -23
100 11 9 12 3 8 -28 l-5 -38 14 35 c7 19 11 55 9 79 -3 27 -1 41 6 38 5 -4 12
9 15 29 11 69 59 175 93 208 37 36 55 74 59 124 2 31 25 72 25 44 0 -22 38 3
66 43 21 32 22 36 5 21 -18 -16 -21 -17 -21 -3 0 9 4 18 9 21 10 7 21 66 11
66 -3 0 -12 -6 -19 -12 -10 -11 -10 -8 -2 13 5 15 7 30 4 33 -4 3 -2 16 4 29
24 49 29 67 31 111 1 18 14 39 37 60 19 18 35 38 35 44 0 7 4 12 9 12 9 0 51
103 51 126 0 18 31 54 42 48 4 -3 8 0 8 5 0 6 9 11 20 11 17 0 20 -7 20 -49 0
-41 -6 -57 -35 -95 -19 -25 -31 -46 -27 -46 20 0 82 107 82 141 0 23 3 30 9
20 5 -7 13 -11 19 -7 5 3 17 -5 26 -19 9 -14 20 -24 24 -23 18 6 90 -52 129
-103 22 -30 25 -31 19 -9 -4 14 -9 36 -11 50 -2 14 -14 33 -26 43 -17 13 -19
21 -11 29 7 7 12 19 11 28 0 10 -2 11 -6 3 -2 -7 -13 -13 -24 -13 -10 0 -19 6
-19 13 0 6 -6 24 -14 39 -12 23 -12 27 1 32 23 9 33 7 31 -5 -2 -6 2 -13 9
-16 7 -3 10 4 6 19 -3 16 -2 19 5 10 5 -8 13 -13 18 -11z m810 -1403 c-9 -56
-135 -311 -179 -363 -53 -62 -311 -194 -334 -171 -4 3 -1 6 7 6 7 0 38 11 69
25 79 36 338 306 382 398 16 34 29 72 29 85 0 24 16 62 27 62 3 0 3 -19 -1
-42z m2580 -165 c9 16 11 16 23 -7 11 -20 19 -23 51 -19 21 3 54 0 75 -7 30
-10 39 -10 45 0 6 10 29 11 92 6 45 -4 97 -7 115 -6 17 0 34 -4 37 -9 10 -15
-143 -23 -367 -18 -114 2 -209 6 -211 8 -2 2 -6 14 -10 25 -6 20 -2 22 41 26
26 3 54 0 60 -5 9 -6 15 -4 20 9 6 17 7 17 13 -1 6 -18 7 -18 16 -2z m-3745
-34 c4 -7 9 -8 13 -1 3 5 -1 13 -10 16 -9 4 -14 9 -11 12 7 7 44 -18 45 -29 0
-14 41 -57 54 -57 6 0 2 -10 -10 -23 -12 -13 -27 -38 -33 -57 -13 -39 -27 -60
-40 -60 -18 0 -70 122 -75 175 l-5 54 32 -9 c18 -5 36 -15 40 -21z m3903 -84
c27 -2 54 -9 60 -15 14 -14 59 -13 50 1 -4 8 25 9 102 5 60 -3 129 -5 154 -6
l45 0 -24 -19 c-14 -10 -45 -21 -70 -24 -49 -5 -64 -1 -42 12 7 5 -52 9 -131
10 -126 2 -257 13 -296 26 -32 11 3 24 51 19 29 -2 74 -7 101 -9z m-254 -735
c0 -6 -26 -10 -59 -10 -64 0 -94 -7 -86 -20 3 -5 1 -11 -5 -15 -18 -11 -11
-35 10 -35 11 0 20 6 20 14 0 7 11 16 25 18 14 3 25 1 25 -5 0 -5 9 -7 20 -4
11 3 20 1 20 -4 0 -5 -4 -9 -10 -9 -5 0 -10 -5 -10 -11 0 -8 4 -8 14 0 21 17
118 20 111 4 -2 -7 2 -13 10 -13 8 0 15 -4 15 -10 0 -5 -9 -10 -19 -10 -11 0
-22 -4 -25 -8 -2 -4 -31 -5 -63 -2 -32 3 -76 3 -98 0 -37 -5 -109 12 -143 33
-22 14 17 66 58 77 73 20 190 26 190 10z m306 -434 c10 -8 16 -17 13 -21 -4
-3 -93 -13 -199 -21 -158 -12 -195 -13 -201 -2 -6 8 -3 14 6 16 9 2 13 7 11
11 -3 4 23 7 57 7 73 1 177 11 185 19 11 11 109 4 128 -9z m-1492 -27 c40 -23
43 -31 21 -49 -8 -7 -15 -19 -15 -26 0 -8 -6 -11 -15 -8 -11 5 -13 2 -9 -10 3
-9 11 -13 16 -9 7 4 8 -7 4 -31 -5 -24 -3 -43 5 -52 10 -12 8 -18 -7 -29 -10
-8 -28 -12 -39 -9 -68 20 -155 25 -225 14 -41 -6 -109 -12 -150 -13 -69 -2
-75 0 -75 18 0 14 6 19 19 18 18 -1 45 22 66 58 8 13 1 14 -62 7 -39 -5 -73
-7 -75 -4 -3 3 5 25 18 50 16 33 26 43 34 36 7 -5 15 -7 18 -4 4 4 19 -1 34
-11 18 -12 28 -14 31 -7 2 7 12 22 22 34 18 22 18 22 52 4 28 -15 38 -17 57
-7 29 16 54 -3 48 -36 -5 -28 19 -32 28 -4 3 11 15 23 27 27 11 3 41 19 66 35
55 35 61 35 106 8z m-4031 -175 c15 -2 27 1 27 6 0 6 7 10 17 10 14 0 14 -3
-3 -22 -10 -12 -14 -18 -7 -15 6 4 14 3 18 -3 3 -5 13 -10 21 -10 8 0 12 5 9
10 -8 13 1 13 33 -3 15 -8 45 -13 67 -11 54 3 99 -6 87 -18 -15 -15 -181 -16
-201 -1 -9 7 -26 13 -38 13 -13 0 -23 3 -23 8 0 4 -39 8 -88 10 -48 2 -89 8
-90 13 -3 6 -9 6 -15 1 -7 -5 -22 -3 -37 5 l-25 15 27 -6 c14 -3 37 -2 50 4
20 8 70 7 171 -6z m5632 -54 c-4 -11 -3 -20 2 -19 4 1 13 0 18 -1 16 -3 38 -6
70 -9 l30 -3 -32 -9 c-18 -5 -33 -14 -33 -19 0 -6 -9 -10 -21 -10 -15 0 -19
-4 -15 -16 5 -13 3 -14 -6 -7 -23 18 -57 21 -75 7 -17 -13 -17 -13 2 -14 11
-1 14 -4 7 -7 -6 -2 -10 -8 -7 -12 2 -4 -16 -9 -40 -9 -30 -2 -45 2 -45 10 0
8 -3 9 -8 3 -13 -19 -88 -33 -106 -20 -14 11 -14 13 2 27 12 11 38 15 95 14
43 -1 73 0 67 2 -20 7 -10 22 15 22 16 0 25 6 25 15 0 8 9 15 21 15 11 0 17 5
14 10 -3 6 -18 8 -33 5 l-27 -5 28 11 c15 6 27 17 27 25 0 8 7 14 16 14 11 0
14 -6 9 -20z m-1052 -181 c53 1 97 -2 97 -6 0 -16 -136 -37 -227 -36 -54 0
-93 -3 -93 -9 0 -20 -24 -1 -31 25 -4 15 -7 27 -6 28 1 0 25 3 52 6 28 2 52 6
54 8 1 2 15 -1 30 -7 14 -5 70 -9 124 -9z m552 -151 c4 -4 13 -4 20 -2 7 3 24
0 36 -6 22 -12 21 -13 -17 -28 -53 -21 -269 -23 -307 -3 -21 11 -24 17 -15 28
8 10 24 13 57 8 25 -3 66 -1 91 4 49 10 125 9 135 -1z"/>
<path d="M961 3145 c-77 -70 -131 -250 -112 -374 6 -38 15 -81 21 -96 5 -14
10 -41 10 -58 0 -24 3 -28 10 -17 5 8 10 27 10 42 0 14 18 84 39 155 22 70 44
147 50 170 20 73 77 127 135 125 l29 -1 -44 45 c-56 57 -92 59 -148 9z"/>
<path d="M1202 2794 c-34 -15 -56 -32 -62 -48 -5 -13 -14 -27 -20 -31 -6 -4
-19 -25 -30 -48 -37 -80 -14 -237 35 -237 20 0 19 7 -5 37 -26 33 -27 73 -2
73 19 0 114 59 165 103 l28 24 -17 66 c-9 37 -21 70 -28 75 -7 6 -31 0 -64
-14z"/>
<path d="M1280 2005 c-14 -8 -33 -16 -43 -19 -15 -5 -17 -12 -12 -38 10 -52
65 -156 96 -184 l22 -19 -6 55 c-4 30 -7 92 -7 138 0 88 -3 92 -50 67z"/>
</g>
</svg>
