<?xml version="1.0" standalone="no"?>
<!DOCTYPE svg PUBLIC "-//W3C//DTD SVG 20010904//EN"
 "http://www.w3.org/TR/2001/REC-SVG-20010904/DTD/svg10.dtd">
<svg version="1.0" xmlns="http://www.w3.org/2000/svg"
 width="614.000000pt" height="818.000000pt" viewBox="0 0 614.000000 818.000000"
 preserveAspectRatio="xMidYMid meet">
<metadata>
Created by potrace 1.16, written by Peter Selinger 2001-2019
</metadata>
<g transform="translate(0.000000,818.000000) scale(0.100000,-0.100000)"
fill="#000000" stroke="none">
<path d="M0 5530 l0 -2650 23 0 c14 0 29 -10 40 -29 23 -39 22 -44 -8 -37 -29
7 -30 5 -10 -34 9 -18 13 -41 9 -62 -10 -58 -12 -60 -34 -48 -23 12 -29 -4 -5
-17 8 -5 16 -20 17 -33 2 -19 -1 -24 -14 -22 -16 3 -18 -6 -18 -72 0 -65 2
-75 19 -81 11 -3 23 -15 26 -26 7 -21 20 -25 30 -9 13 20 44 9 64 -23 11 -19
32 -39 46 -45 14 -6 25 -16 25 -22 0 -19 28 -10 44 14 27 42 53 42 92 0 27
-28 32 -39 22 -45 -7 -5 -13 -12 -13 -16 -1 -4 -5 -18 -9 -31 -5 -15 -2 -31 8
-47 18 -27 20 -35 8 -35 -9 0 -36 45 -38 64 0 6 -2 19 -2 29 -3 28 -32 21 -32
-8 0 -27 -9 -32 -28 -13 -9 9 -12 7 -12 -9 0 -14 8 -24 22 -29 13 -4 26 -12
30 -18 12 -17 9 -66 -3 -66 -5 0 -7 -6 -3 -12 14 -22 12 -52 -4 -70 -10 -12
-11 -18 -3 -18 7 0 9 -4 6 -10 -3 -5 -16 -10 -28 -10 -18 0 -29 15 -56 75 -33
75 -33 76 -15 98 l19 22 -23 -19 c-22 -19 -22 -19 -52 9 -28 27 -53 78 -44 88
9 9 -18 92 -35 108 -10 9 -27 20 -39 23 -19 6 -22 3 -22 -19 0 -22 3 -24 19
-15 11 5 22 10 24 10 8 0 40 -130 34 -137 -12 -11 -57 16 -67 39 -5 14 -9
-427 -9 -1124 l-1 -1148 1504 0 1503 0 56 113 c31 61 63 121 72 132 16 19 16
19 10 -10 -4 -16 -11 -33 -17 -36 -10 -7 -62 -121 -78 -171 l-9 -28 1550 0
1549 0 0 201 c0 115 -4 208 -10 219 -7 13 -7 21 0 25 6 4 10 73 10 176 0 114
-3 168 -10 164 -6 -4 -28 -41 -49 -83 -37 -76 -38 -78 -35 -179 2 -60 0 -103
-6 -103 -5 0 -19 4 -32 9 -13 5 -31 12 -42 15 -29 10 -2 34 31 28 22 -4 25 -2
20 12 -4 10 -10 29 -13 42 -9 34 -20 30 -69 -22 -51 -54 -36 -56 -253 30 -78
31 -145 56 -147 56 -3 0 -55 22 -116 50 -61 27 -117 50 -123 50 -7 0 -40 14
-73 31 -64 33 -89 68 -112 154 -16 62 -30 239 -20 246 6 3 69 11 142 18 73 6
213 25 312 41 120 20 216 30 287 30 59 0 152 5 208 11 l100 12 0 364 0 363
-24 9 c-42 17 -42 47 2 70 21 11 22 17 22 141 0 75 -4 131 -10 135 -13 8 -13
48 0 61 15 15 9 416 -6 421 -7 2 -15 -8 -18 -22 -6 -22 -11 -26 -39 -23 -22 2
-35 11 -44 28 -17 33 0 50 49 50 57 0 68 16 68 99 0 38 -4 73 -10 76 -14 8
-13 41 2 65 10 16 10 24 0 40 -15 24 -16 57 -2 65 14 9 12 48 -2 64 -10 11
-10 14 0 18 8 3 12 35 12 111 -1 78 -3 102 -11 90 -20 -36 -67 -8 -54 33 6 16
13 20 36 17 l29 -5 0 198 c0 121 -4 200 -10 204 -5 3 -10 17 -10 31 0 13 5 24
10 24 6 0 10 108 10 305 l0 305 -25 10 c-15 6 -25 17 -25 30 0 15 7 20 25 20
l25 0 0 435 c0 403 -3 460 -25 425 -3 -5 -21 -10 -39 -10 -31 0 -34 3 -40 38
-11 66 -9 72 24 72 23 0 30 -5 32 -20 0 -11 1 -26 2 -32 1 -17 23 -31 36 -23
6 4 10 59 10 129 0 115 -2 126 -25 160 -32 47 -32 64 0 72 23 6 37 34 17 34
-5 0 -16 6 -26 13 -21 16 -12 47 15 47 19 0 19 24 19 921 0 646 -3 926 -11
941 -8 14 -8 23 0 31 13 13 16 297 3 297 -4 0 -14 -6 -20 -12 -10 -10 -14 -8
-18 10 -5 16 -14 22 -35 22 -24 0 -29 -4 -29 -24 0 -24 -24 -41 -42 -30 -5 4
-8 17 -5 30 l4 24 -643 0 -644 -1 0 -24 c0 -18 -5 -25 -20 -25 -25 0 -27 37
-2 43 9 2 -211 5 -490 6 l-507 1 -3 -27 c-2 -22 -9 -29 -31 -31 -27 -3 -29 -2
-22 27 l6 30 -415 1 -416 0 0 -22 c0 -12 7 -30 17 -40 15 -17 15 -18 -5 -18
-12 0 -22 4 -22 9 0 17 -41 -2 -57 -25 -18 -29 -31 -30 -49 -6 -23 29 -16 49
29 76 l42 25 -90 0 c-69 -1 -94 -5 -108 -17 -17 -16 -20 -15 -32 1 -10 14 -29
17 -119 17 -102 0 -106 -1 -96 -19 14 -27 4 -48 -33 -66 -28 -14 -33 -14 -46
0 -13 13 -11 19 19 50 l34 35 -95 -2 -96 -2 5 -42 c4 -36 1 -44 -20 -58 -30
-19 -48 -56 -48 -96 0 -26 -8 -34 -31 -32 -4 1 -14 -7 -24 -18 -12 -13 -25
-17 -44 -14 -18 4 -32 0 -40 -10 -8 -9 -20 -16 -28 -16 -8 0 -19 -13 -24 -30
-13 -36 -19 -37 -42 -5 -19 26 -15 45 8 45 8 0 22 11 31 25 12 18 22 24 35 20
22 -7 22 -7 8 33 l-10 31 -28 -31 c-22 -25 -33 -30 -54 -24 -15 3 -27 13 -27
21 0 8 -6 15 -13 15 -23 0 -59 59 -53 86 4 13 11 24 17 24 6 0 22 9 36 20 27
21 63 27 63 10 0 -5 -4 -10 -10 -10 -5 0 -10 -9 -10 -20 0 -26 12 -25 39 4
l22 24 -26 26 -26 26 -229 0 c-198 0 -230 -2 -230 -15 0 -8 -5 -15 -10 -15 -6
0 -13 7 -16 15 -5 12 -30 15 -140 15 l-134 0 0 -106 c0 -58 4 -114 10 -124 11
-20 -8 -34 -29 -20 -11 6 -29 145 -31 228 l0 22 -495 0 -495 0 0 -2650z m1488
2624 c6 -11 11 -13 16 -5 11 17 45 13 58 -8 9 -15 19 -18 48 -14 45 6 53 -4
44 -52 -5 -29 -12 -37 -35 -42 -16 -3 -29 -12 -29 -19 0 -8 -11 -14 -26 -14
-23 0 -26 3 -22 30 4 24 1 30 -15 30 -10 0 -21 9 -24 20 -3 11 -11 20 -19 20
-7 0 -18 9 -24 21 -20 37 8 69 28 33z m182 -199 c0 -6 -14 -32 -32 -56 -17
-24 -32 -46 -32 -49 -1 -3 -4 -4 -8 -3 -3 1 -12 -4 -18 -12 -18 -22 -28 -19
-76 28 -49 47 -53 61 -23 77 26 14 28 12 31 -29 2 -33 2 -33 20 -11 9 11 14
28 11 36 -5 15 11 33 30 34 4 0 13 -11 19 -25 8 -19 14 -22 24 -14 7 6 10 17
7 26 -8 20 17 35 34 21 7 -6 13 -16 13 -23z m-498 -44 c-3 -18 0 -22 12 -17 9
3 22 9 30 12 9 4 18 -6 26 -30 6 -20 15 -34 20 -31 18 11 40 -8 40 -36 0 -31
-9 -36 -28 -17 -6 6 -23 12 -36 13 -19 0 -25 -4 -23 -20 2 -16 -3 -19 -23 -17
-14 1 -31 9 -39 17 -12 12 -17 11 -33 -7 -10 -12 -18 -17 -18 -12 0 6 4 14 9
20 12 12 -11 116 -27 122 -7 2 -12 9 -12 16 0 9 16 12 53 12 49 -1 52 -3 49
-25z m906 -1 c2 -14 11 -31 21 -37 15 -10 17 -7 13 18 -3 23 -1 29 15 29 27 0
65 -29 56 -43 -4 -7 -9 -20 -10 -30 -3 -15 1 -17 19 -11 29 8 38 22 38 55 0
15 7 30 16 33 28 11 54 6 54 -9 0 -7 7 -18 17 -23 12 -7 15 -18 10 -48 -4 -22
-13 -44 -21 -49 -8 -6 -16 -22 -18 -35 -3 -16 -7 -4 -12 33 -7 46 -12 57 -25
55 -9 -2 -17 -14 -19 -26 -4 -27 -28 -40 -45 -23 -18 18 -27 13 -27 -15 0 -24
-1 -24 -22 -10 -28 20 -57 20 -94 1 -27 -13 -30 -19 -26 -51 4 -29 7 -33 14
-20 18 31 48 13 48 -30 0 -20 -45 -18 -77 3 -14 10 -35 17 -45 18 -10 0 -24
11 -31 25 -17 34 -72 41 -80 11 -4 -18 -1 -20 26 -18 29 2 32 -1 35 -30 2 -17
10 -37 18 -43 19 -17 18 -34 -2 -26 -9 4 -28 -1 -42 -10 -25 -16 -25 -16 -19
12 4 23 -3 54 -18 72 -1 1 -16 7 -32 11 l-31 9 0 -51 c0 -45 -3 -54 -33 -79
-19 -15 -42 -28 -51 -28 -10 0 -18 -8 -18 -17 0 -9 -8 -25 -17 -36 -17 -20
-17 -20 6 -14 17 4 34 -2 58 -20 26 -20 37 -23 42 -14 4 7 14 11 22 9 9 -2 13
4 12 17 -2 22 13 35 40 35 23 0 22 -35 -2 -59 -10 -10 -22 -28 -26 -40 -3 -12
-13 -21 -21 -21 -23 0 -16 -18 9 -22 17 -2 21 -9 19 -28 -7 -61 -72 -101 -72
-43 0 15 -5 42 -12 60 -11 29 -16 33 -48 33 -24 0 -39 6 -48 20 -7 11 -19 20
-26 20 -16 0 -46 26 -46 40 0 5 12 15 28 22 20 10 26 20 24 37 -6 42 7 71 31
71 13 0 43 15 67 32 36 27 41 33 25 36 -11 2 -28 14 -37 25 -18 22 -18 22 -18
-10 0 -19 -5 -33 -12 -33 -6 0 -19 -7 -27 -14 -9 -8 -21 -12 -27 -8 -15 9 -25
94 -14 112 5 9 3 25 -7 43 -17 33 -8 49 29 53 13 2 39 6 58 9 28 4 30 3 13 -4
-21 -9 -25 -17 -37 -73 -5 -23 -3 -28 14 -28 11 0 20 -5 20 -10 0 -15 42 8 59
33 11 15 22 18 52 14 35 -5 38 -3 41 22 2 20 9 27 31 29 27 3 33 -7 28 -45 -3
-18 7 -16 36 7 14 11 32 20 39 20 23 0 25 18 3 54 -25 43 -20 63 18 69 53 8
68 3 71 -23z m172 -252 c0 -31 -13 -57 -33 -67 -19 -10 -18 -11 12 -6 33 5 33
4 28 -24 -5 -25 -3 -29 13 -28 11 1 20 8 20 16 0 8 3 11 7 7 4 -4 6 -25 4 -46
-2 -30 1 -40 12 -40 8 0 17 -9 20 -20 4 -16 0 -20 -23 -20 -24 0 -27 3 -22 23
5 19 4 20 -11 8 -15 -12 -18 -10 -28 15 -10 28 -11 28 -25 10 -8 -11 -14 -30
-14 -43 0 -26 -23 -27 -61 -1 -22 14 -23 17 -10 42 8 14 22 26 32 26 10 0 20
4 23 9 6 9 -37 20 -94 24 -32 2 -35 0 -36 -28 -3 -67 -78 -160 -113 -138 -9 6
-17 20 -17 33 -1 12 -6 25 -11 29 -22 14 -54 89 -51 117 2 24 8 29 35 32 24 2
34 -2 43 -17 14 -27 50 -28 50 -2 0 27 8 30 84 33 64 3 67 4 61 26 -3 13 -3
27 0 32 9 15 105 12 105 -2z m-1262 -64 c6 -11 11 -13 16 -5 10 16 43 14 50
-4 3 -8 11 -14 18 -13 8 2 14 -10 16 -29 4 -37 -11 -43 -40 -16 -18 16 -19 15
-12 -24 7 -45 -8 -66 -26 -33 -8 14 -8 26 0 40 9 17 8 26 -3 18 -2 -2 -12 3
-21 11 -14 12 -21 12 -41 1 -13 -7 -22 -18 -19 -24 5 -15 -13 -42 -23 -33 -11
12 -5 97 8 113 16 19 66 18 77 -2z m-158 -4 c0 -6 -9 -27 -20 -47 -20 -37 -27
-83 -12 -83 4 0 16 7 26 15 23 18 46 4 46 -28 0 -16 3 -18 12 -9 21 21 48 14
61 -16 12 -30 71 -102 83 -102 3 0 3 7 0 16 -4 9 -2 13 5 8 8 -4 9 1 4 16 -5
15 -4 20 4 16 6 -4 11 -13 11 -20 0 -8 13 -16 28 -19 28 -6 29 -7 22 -52 -7
-49 -20 -72 -20 -37 0 28 -16 29 -23 2 -3 -11 -1 -20 3 -20 14 0 -1 -38 -17
-44 -21 -9 -30 -1 -36 34 -5 24 -12 30 -31 30 -33 0 -56 -10 -56 -24 0 -7 -11
-23 -25 -36 -14 -13 -25 -33 -25 -44 0 -12 -4 -25 -8 -31 -10 -14 -55 -39 -47
-26 8 14 -22 9 -52 -7 -12 -7 -29 -12 -38 -12 -9 0 -15 -6 -12 -12 2 -7 -9
-21 -25 -30 -15 -10 -28 -22 -28 -28 0 -20 -38 -31 -65 -18 -34 15 -68 72 -60
98 9 28 33 25 47 -5 6 -14 17 -25 25 -25 22 0 15 27 -12 44 -30 20 -33 52 -5
61 25 8 40 -1 40 -24 0 -28 40 -34 63 -11 10 11 24 20 32 20 13 0 13 4 3 23
-7 12 -21 32 -32 44 -28 34 -8 62 38 54 5 -1 13 4 18 11 6 8 8 0 5 -24 -4 -28
-2 -36 8 -32 8 3 15 18 17 32 4 39 45 44 54 7 6 -26 7 -26 21 -5 8 11 13 28
11 38 -1 9 1 23 6 31 7 11 1 13 -38 9 -40 -5 -46 -3 -46 13 0 10 -10 27 -21
38 -21 19 -21 21 -5 46 18 27 7 34 -18 10 -8 -8 -22 -15 -30 -15 -18 0 -21
-11 -6 -26 6 -6 6 -21 0 -43 -8 -29 -7 -34 10 -38 11 -3 20 -9 20 -14 0 -13
-84 -11 -98 3 -9 9 -12 2 -12 -34 0 -41 3 -49 28 -60 31 -15 37 -51 9 -56 -12
-3 -21 6 -28 27 -11 32 -23 39 -34 21 -9 -14 -21 -12 -39 6 -9 8 -20 13 -25
10 -5 -4 -11 -1 -13 6 -3 7 -15 13 -29 13 -21 0 -24 5 -27 45 -3 62 8 77 46
61 17 -7 33 -19 36 -28 8 -19 26 -7 26 19 0 11 8 22 20 25 11 3 20 10 20 16 0
5 7 15 16 22 13 9 14 16 5 33 -16 31 -14 41 10 35 13 -4 27 2 40 16 11 11 31
21 44 21 21 0 25 5 25 30 0 17 8 39 18 49 18 21 52 28 52 11z m738 -496 c3
-23 -36 -74 -57 -74 -6 0 -11 -7 -11 -15 0 -8 7 -15 16 -15 25 0 74 -56 74
-84 0 -14 -5 -26 -10 -26 -21 0 -79 29 -98 48 -12 12 -29 18 -39 16 -16 -4
-18 1 -17 43 2 47 2 48 33 48 17 0 31 5 31 11 0 6 7 17 15 24 9 7 14 19 11 26
-6 17 4 25 29 22 12 -2 21 -12 23 -24z m677 8 c22 -16 35 -54 35 -103 0 -48
-1 -50 -22 -43 -33 10 -35 14 -14 29 11 8 16 21 13 30 -7 17 -27 21 -27 5 0
-37 -27 -50 -86 -42 -40 6 -49 11 -49 27 0 14 8 21 24 23 35 5 71 31 71 51 0
10 3 21 7 24 8 9 35 9 48 -1z m-1345 -56 c0 -31 -4 -36 -37 -47 l-37 -12 22
-17 c27 -22 28 -40 3 -40 -23 0 -30 9 -33 44 -1 14 -8 26 -15 26 -7 0 -10 -9
-7 -22 6 -28 24 -131 24 -138 0 -3 -18 -4 -40 -2 -35 4 -40 7 -40 29 0 16 7
27 20 30 18 5 18 7 5 34 -33 63 -9 107 74 133 25 8 49 14 54 15 4 1 7 -14 7
-33z m2236 -11 c7 -53 21 -66 30 -30 8 31 15 31 43 -1 21 -24 45 -110 34 -127
-10 -17 -33 17 -34 52 0 20 -3 30 -6 24 -5 -14 -45 -19 -40 -5 6 18 -17 11
-27 -9 -6 -12 -17 -24 -25 -27 -8 -3 -11 0 -7 7 4 6 1 11 -6 11 -16 0 -48 50
-48 75 0 17 55 75 70 75 5 0 12 -20 16 -45z m-2424 -165 c4 -92 6 -102 19
-111 8 -5 17 -9 21 -9 9 0 19 34 16 51 -2 9 7 15 23 17 28 3 39 -15 39 -65 0
-13 5 -23 10 -23 6 0 10 4 10 9 0 15 31 42 41 36 14 -9 11 -67 -6 -115 -8 -23
-15 -58 -15 -77 0 -31 -3 -35 -20 -29 -11 3 -29 9 -40 12 -14 5 -20 2 -20 -10
0 -9 -4 -16 -10 -16 -11 0 -13 12 -10 48 1 13 -4 43 -11 66 -11 37 -16 42 -35
38 -18 -3 -26 2 -36 24 -16 39 -16 38 -32 25 -33 -28 -134 110 -106 145 16 19
54 18 71 -2 11 -14 14 -14 23 -2 11 15 32 26 54 27 7 1 13 -14 14 -39z m1689
-76 c10 -32 46 -57 86 -59 12 0 26 -5 30 -9 5 -5 2 -6 -6 -1 -10 6 -12 3 -7
-13 4 -11 1 -26 -6 -33 -7 -8 -14 -30 -15 -49 -5 -64 -12 -80 -31 -73 -23 9
-32 23 -32 54 0 14 -5 30 -11 36 -6 6 -14 26 -18 43 -4 22 -14 36 -30 42 -18
6 -22 5 -18 -6 4 -10 -3 -13 -26 -11 -18 2 -37 -1 -43 -6 -15 -12 -46 17 -42
40 5 23 48 27 49 4 0 -11 3 -13 6 -5 4 11 8 10 22 -2 14 -13 19 -11 49 25 19
22 30 39 25 38 -35 -6 -46 22 -15 40 13 8 18 6 20 -7 2 -9 8 -31 13 -48z
m-179 -81 c2 -46 6 -57 21 -59 14 -2 18 2 14 17 -7 27 7 24 23 -6 7 -13 22
-27 32 -31 23 -7 48 -54 48 -90 0 -15 14 -51 30 -81 17 -29 30 -63 29 -75 -1
-21 -1 -21 -10 4 -6 14 -17 29 -25 32 -15 6 -19 -5 -7 -18 4 -4 9 -22 10 -39
1 -18 5 -46 8 -63 8 -36 -5 -50 -33 -35 -12 6 -24 32 -32 68 -14 60 -27 79
-64 98 -22 11 -68 -3 -66 -21 0 -5 -8 -10 -20 -12 -14 -2 -18 1 -14 12 3 8 12
17 20 20 8 3 14 19 14 36 0 18 6 33 15 36 19 8 47 -14 38 -30 -3 -6 0 -6 8 2
25 23 49 15 49 -17 0 -32 14 -49 25 -31 23 37 3 122 -24 106 -5 -3 -14 1 -21
9 -7 8 -20 15 -30 15 -18 0 -33 34 -34 75 -1 11 -13 25 -30 33 -25 13 -28 18
-22 50 5 32 19 51 38 52 4 0 8 -25 10 -57z m-1536 -326 c3 -9 16 -12 34 -9 33
5 51 -19 33 -46 -15 -25 -30 -25 -52 -1 -24 26 -29 13 -6 -17 21 -28 18 -44
-10 -44 -18 0 -26 -7 -31 -25 -8 -31 -35 -56 -41 -37 -3 6 -9 9 -15 6 -6 -4
-8 1 -4 14 4 11 2 23 -4 27 -17 11 -11 47 15 81 14 18 25 37 25 42 0 21 48 28
56 9z m1788 -107 c4 -27 13 -56 21 -64 13 -12 8 -16 -38 -30 -69 -22 -133 -25
-129 -8 1 8 -2 11 -7 8 -5 -3 -21 11 -37 31 -17 22 -23 38 -16 41 6 2 8 10 5
18 -6 17 21 19 35 2 5 -7 13 -24 17 -38 4 -13 15 -31 23 -39 14 -14 15 -13 9
17 -4 17 -2 32 3 32 5 0 10 -10 12 -22 3 -21 3 -21 33 4 25 22 27 28 17 41 -9
11 -10 17 -2 22 6 4 14 4 17 1 4 -3 0 -6 -8 -6 -11 0 -11 -2 1 -10 23 -15 27
-12 22 20 -2 17 0 30 6 30 5 0 12 -22 16 -50z m-887 -180 c14 -11 32 -20 39
-20 23 0 51 -54 58 -113 6 -57 6 -58 -16 -52 -13 4 -32 17 -43 30 -15 17 -23
20 -31 11 -18 -19 -32 -50 -27 -62 2 -6 -8 -16 -22 -22 -21 -10 -24 -14 -13
-26 7 -8 16 -12 21 -9 4 2 7 -4 7 -15 0 -10 16 -36 35 -58 31 -35 35 -36 35
-17 0 19 3 21 22 14 12 -4 25 -20 29 -35 5 -17 4 -24 -3 -20 -6 4 -8 -1 -4
-12 3 -11 1 -26 -5 -34 -8 -12 -9 -9 -4 10 6 23 5 24 -6 5 -26 -42 -36 -46
-53 -22 -10 12 -14 16 -11 10 3 -7 0 -13 -7 -14 -81 -5 -137 -21 -143 -40 -7
-20 -17 -24 -29 -11 -4 4 -12 7 -17 7 -5 0 -8 5 -6 10 1 6 12 9 24 7 17 -2 21
1 17 13 -3 8 -10 15 -14 15 -14 0 -21 32 -9 46 17 21 49 -1 50 -34 l0 -27 17
25 c9 13 25 31 34 39 13 11 14 19 7 33 -6 10 -14 16 -19 13 -5 -3 -7 15 -6 40
4 50 -4 56 -27 23 -11 -18 -18 -20 -27 -12 -18 18 -8 44 25 62 16 9 36 25 43
35 7 9 18 15 23 12 5 -4 6 2 2 12 -6 16 -5 16 10 4 16 -13 25 -2 10 13 -4 4
-8 19 -10 34 -3 25 -2 25 11 10 7 -10 16 -18 18 -18 9 0 4 58 -6 67 -4 4 -14
23 -22 42 -12 28 -12 36 -2 43 17 10 16 11 45 -12z m-32 -607 c0 -24 3 -29 12
-21 15 12 43 -6 43 -27 0 -6 9 -20 19 -29 22 -20 34 -56 19 -56 -6 0 -8 -8 -6
-18 3 -12 -2 -24 -14 -31 -17 -10 -23 -9 -39 11 -16 17 -22 19 -28 9 -5 -8
-17 -11 -29 -7 -17 6 -19 3 -15 -13 7 -26 -15 -64 -33 -57 -8 3 -14 1 -14 -4
0 -5 9 -12 20 -15 24 -8 27 -40 4 -49 -21 -8 -34 1 -34 25 0 10 -5 19 -12 19
-6 0 -9 3 -5 6 3 4 -4 15 -16 25 -18 14 -20 21 -11 36 6 10 22 24 35 30 13 7
23 18 21 23 -4 18 18 50 33 50 9 0 15 -10 15 -25 0 -17 5 -25 18 -25 12 0 14
2 4 8 -9 7 -6 15 13 37 19 19 23 31 16 38 -7 7 -16 5 -29 -6 -31 -28 -40 -20
-40 36 0 62 3 69 31 65 17 -2 22 -10 22 -35z m4339 -71 c2 -4 6 -36 7 -72 2
-47 -1 -65 -12 -70 -8 -4 -28 -14 -44 -23 -26 -13 -42 -14 -102 -5 l-72 11 -6
50 c-9 66 -2 71 105 67 32 -1 50 -7 61 -22 20 -26 53 -20 57 11 2 14 0 21 -6
17 -14 -8 -25 11 -18 29 6 16 22 20 30 7z m-3169 -142 c3 5 11 10 16 10 5 0 2
-12 -8 -27 -17 -28 -17 -28 2 -13 11 8 24 20 28 25 6 6 7 4 4 -5 -2 -8 5 -24
16 -35 20 -20 20 -20 9 1 -7 12 -7 26 -1 35 7 11 9 11 9 0 0 -10 9 -12 37 -6
21 4 41 11 44 17 4 7 9 6 13 -1 4 -6 16 -11 27 -11 25 0 24 -8 -3 -31 l-23
-18 23 -1 c13 0 33 -9 45 -20 15 -15 29 -19 48 -15 17 4 30 1 39 -10 9 -11 23
-14 48 -10 20 3 38 1 42 -5 8 -13 101 -30 127 -24 12 3 24 1 27 -5 4 -6 18 -8
31 -5 12 3 26 1 29 -5 4 -6 18 -11 32 -11 14 0 35 -11 48 -25 18 -19 35 -26
68 -27 38 -2 43 -4 32 -16 -8 -7 -14 -19 -13 -25 0 -9 2 -8 6 1 6 16 23 15 23
-2 0 -8 7 -17 16 -20 12 -4 15 -2 10 9 -6 17 9 21 19 4 4 -6 8 -23 9 -38 l2
-27 -49 24 c-26 13 -51 22 -54 18 -4 -3 -1 -6 5 -6 7 0 12 -7 12 -16 0 -10 5
-14 15 -10 20 7 29 -17 16 -42 -9 -16 -7 -19 7 -18 13 1 16 -6 14 -31 -2 -19
1 -33 7 -33 15 0 14 -30 -1 -30 -7 -1 2 -7 20 -15 17 -8 32 -18 32 -23 0 -5
12 -14 26 -21 14 -6 24 -17 21 -24 -2 -6 0 -20 5 -29 6 -12 5 -18 -3 -18 -7 0
-6 -9 5 -25 9 -13 16 -30 16 -38 0 -41 76 -147 105 -147 9 0 15 -9 15 -23 0
-22 18 -54 49 -87 50 -53 64 -81 67 -140 2 -19 5 -55 8 -78 3 -24 6 -60 8 -80
1 -21 5 -39 10 -43 4 -3 4 -19 -1 -37 -8 -25 -8 -342 -1 -362 1 -3 1 -13 0
-24 -1 -10 3 -16 8 -12 5 3 9 -19 8 -53 0 -32 -4 -57 -8 -54 -10 5 -10 -3 1
-49 7 -30 6 -35 -6 -31 -8 3 -12 12 -9 19 6 16 -3 18 -24 4 -13 -9 -11 -13 10
-30 l25 -19 -24 6 c-24 6 -24 6 -8 -18 22 -31 21 -39 -3 -39 -12 0 -24 -9 -29
-22 -5 -13 -10 -17 -15 -10 -9 15 -36 4 -36 -15 0 -9 6 -13 14 -10 11 4 17 -8
25 -44 12 -55 8 -71 -13 -63 -12 4 -13 -2 -6 -33 6 -26 5 -40 -3 -45 -6 -4 -8
-10 -4 -14 4 -4 1 -14 -6 -22 -9 -12 -9 -16 1 -19 6 -3 12 -11 12 -19 0 -7 -6
-11 -14 -8 -8 3 -18 -7 -26 -27 l-13 -31 -15 27 c-11 21 -11 33 -3 52 15 33
14 46 -4 40 -8 -4 -17 -2 -20 4 -4 5 -10 7 -15 4 -5 -3 -11 3 -13 12 -3 11 -6
7 -7 -12 l-3 -30 -7 35 -7 35 -2 -32 c0 -18 -5 -33 -10 -33 -5 0 -7 10 -5 23
3 19 -9 -9 -32 -75 -4 -10 -11 -18 -16 -18 -7 0 -8 -15 -4 -38 3 -21 1 -53 -4
-71 -7 -26 -6 -33 8 -38 26 -10 30 -22 21 -62 -5 -20 -6 -45 -4 -56 3 -11 -1
-6 -9 10 -9 18 -10 32 -4 36 5 3 6 17 3 31 -5 19 -15 27 -34 30 -25 4 -28 1
-28 -25 0 -16 -5 -32 -12 -36 -10 -6 -8 -10 4 -15 26 -10 37 3 30 37 -5 24 -4
28 4 17 6 -8 11 -27 11 -42 0 -15 5 -30 10 -33 6 -3 10 -10 10 -16 0 -14 -28
-11 -33 4 -2 6 -7 9 -11 6 -9 -9 14 -70 25 -63 5 3 9 0 9 -7 0 -7 7 -4 15 7
13 17 13 16 3 -13 -7 -18 -16 -33 -21 -33 -5 0 -7 7 -3 15 3 8 1 15 -4 15 -17
0 -11 -36 10 -55 11 -10 20 -23 20 -29 0 -6 -4 -5 -9 3 -5 8 -11 9 -15 3 -3
-6 6 -37 21 -69 15 -32 30 -62 32 -68 7 -18 -21 13 -33 37 -15 30 -37 29 -53
-2 -9 -19 -9 -26 0 -32 8 -5 4 -8 -11 -8 -29 0 -38 25 -24 63 15 38 8 46 -12
15 -12 -19 -13 -32 -4 -73 5 -27 14 -54 19 -59 5 -6 9 -17 9 -27 0 -19 -42
-21 -46 -1 -1 7 0 8 3 2 2 -5 9 -10 14 -10 13 0 0 69 -17 94 -12 17 -13 16
-29 -14 -9 -18 -12 -29 -6 -26 7 5 8 1 5 -9 -4 -9 -9 -13 -12 -11 -7 7 -32
-14 -32 -26 0 -6 7 -5 15 2 12 10 15 10 15 -1 0 -11 2 -11 10 1 8 12 10 12 16
-3 3 -9 1 -24 -6 -32 -15 -18 1 -20 18 -3 17 17 15 -3 -3 -38 -10 -20 -15 -23
-15 -11 0 9 -4 17 -10 17 -5 0 -7 -7 -4 -15 7 -17 -11 -21 -21 -5 -4 6 -11 8
-16 5 -5 -3 -6 1 -3 9 3 8 1 23 -5 33 -9 16 -10 15 -11 -7 0 -14 -5 -32 -11
-40 -9 -13 -10 -12 -5 2 8 27 -13 32 -23 6 l-10 -23 0 25 c-1 14 -1 32 -2 40
-1 8 1 29 5 45 5 22 4 25 -3 10 l-9 -20 -4 20 -5 20 0 -20 c0 -27 -13 -55 -26
-55 -5 0 -3 8 6 18 10 10 14 22 10 25 -3 4 -14 -5 -23 -21 -12 -19 -14 -29 -6
-34 8 -5 7 -8 -1 -8 -7 0 -13 -9 -13 -21 0 -11 -4 -18 -9 -15 -5 4 -11 0 -14
-6 -3 -9 -10 -7 -21 7 -13 18 -15 18 -16 3 0 -10 9 -22 20 -28 11 -6 20 -16
20 -23 0 -8 -3 -8 -9 1 -6 10 -10 8 -15 -10 -5 -19 -8 -20 -16 -8 -5 8 -10 29
-10 47 0 17 -5 35 -11 38 -7 5 -8 -5 -4 -32 5 -31 4 -35 -5 -20 -8 12 -18 16
-31 12 -15 -5 -19 -1 -20 22 -2 24 -2 25 -6 5 -4 -19 -7 -21 -19 -11 -8 6 -14
19 -15 28 0 12 -2 11 -9 -4 -7 -17 -9 -14 -10 15 -1 30 -2 32 -10 14 -11 -29
-30 -40 -40 -24 -4 7 -12 10 -18 6 -5 -3 -12 12 -15 35 -6 43 -17 62 -24 42
-9 -26 -23 -12 -24 25 -1 37 -1 37 -9 7 -7 -27 -8 -25 -9 18 0 26 -5 47 -10
47 -4 0 -7 -12 -5 -27 2 -16 2 -23 -2 -16 -3 7 -12 9 -20 6 -8 -3 -20 0 -28 6
-11 9 -12 6 -8 -16 5 -26 4 -27 -12 -10 -21 20 -27 22 -24 5 2 -7 -5 -12 -15
-11 -14 1 -17 -4 -14 -17 8 -31 -7 -44 -33 -30 -20 11 -22 10 -16 -5 4 -12 0
-18 -14 -22 -11 -3 -20 -13 -20 -22 -1 -14 -2 -14 -14 2 -30 39 -67 1 -53 -54
5 -19 4 -19 -11 -6 -35 29 -45 31 -37 7 5 -15 4 -20 -4 -16 -14 9 -14 -9 -1
-34 8 -16 8 -18 -5 -14 -8 3 -12 10 -9 15 3 5 1 9 -5 9 -5 0 -11 -6 -14 -12
-4 -10 -7 -10 -18 0 -20 18 -31 15 -20 -7 6 -10 7 -21 3 -25 -3 -4 0 -11 7
-15 9 -6 10 -11 2 -15 -6 -4 -14 0 -17 8 -3 9 -12 16 -19 16 -8 0 -17 9 -20
20 -3 11 -11 20 -17 20 -5 0 -8 -7 -5 -14 4 -10 1 -13 -9 -9 -7 3 -14 9 -14
15 0 5 -4 7 -9 4 -5 -3 -12 1 -15 10 -3 9 -13 14 -20 11 -8 -3 -17 -1 -20 6
-4 7 -4 2 -2 -11 4 -18 1 -22 -11 -18 -13 5 -15 0 -10 -29 3 -19 1 -37 -4 -40
-5 -4 -9 16 -9 45 0 32 -4 49 -10 45 -5 -3 -10 -1 -10 4 0 24 -16 9 -18 -16
-3 -37 -22 -55 -23 -22 l-1 24 -8 -25 c-9 -24 -9 -24 -7 5 1 18 7 29 15 27 20
-4 13 15 -8 21 -15 4 -20 0 -20 -15 0 -14 -5 -18 -15 -14 -10 3 -18 -1 -21
-12 -3 -9 -10 -26 -15 -37 -8 -17 -8 -16 -4 5 6 24 5 24 -9 6 -9 -11 -19 -17
-22 -13 -4 4 -1 13 6 22 7 9 10 19 6 22 -4 4 -11 1 -16 -7 -5 -8 -12 -11 -16
-7 -4 3 -1 13 6 22 11 13 10 14 -4 9 -11 -4 -16 -1 -16 12 0 17 -1 16 -15 -2
-19 -25 -19 -40 0 -24 9 8 15 9 15 2 0 -6 -5 -14 -10 -17 -6 -4 -7 -12 -4 -18
4 -7 3 -9 -1 -4 -5 4 -19 -3 -32 -15 -22 -21 -24 -21 -37 -3 -7 10 -18 15 -24
11 -8 -5 -13 3 -13 21 l-2 28 -4 -28 c-3 -20 2 -34 18 -48 17 -14 18 -19 6
-19 -8 0 -17 -6 -20 -12 -3 -7 -8 10 -12 38 -7 48 -8 50 -36 48 -26 -2 -29 1
-23 19 4 12 14 27 23 34 9 7 13 13 10 13 -3 0 -26 -16 -50 -35 -51 -41 -73
-46 -39 -10 26 27 17 35 -11 9 -23 -21 -41 -9 -33 22 4 15 2 24 -6 24 -7 0
-10 7 -7 14 4 11 1 13 -10 9 -12 -5 -14 -1 -8 18 7 21 6 22 -8 11 -14 -12 -16
-11 -14 7 0 11 5 17 11 14 5 -3 6 -1 2 6 -4 6 -2 19 6 28 11 14 11 16 -2 8
-25 -15 -42 -15 -36 1 3 8 -1 14 -10 14 -11 0 -15 6 -11 20 6 25 -8 26 -22 3
-9 -16 -10 -15 -11 5 0 19 -4 22 -20 17 -11 -4 -20 -2 -20 4 0 6 5 11 11 11 5
0 7 5 4 10 -4 6 -11 8 -16 4 -6 -3 1 17 15 45 29 57 33 81 12 81 -20 0 -46
-39 -46 -67 0 -14 -6 -23 -15 -23 -8 0 -15 5 -15 11 0 6 -7 3 -16 -5 -20 -21
-24 -20 -24 5 0 13 4 18 12 13 8 -5 9 0 4 17 -4 13 -9 39 -13 57 -7 39 -20 42
-29 6 -5 -19 -9 -22 -15 -13 -4 8 -4 18 1 23 6 6 10 14 10 20 0 5 -3 7 -6 3
-14 -14 -39 28 -40 67 -1 55 -11 96 -35 142 -11 23 -19 58 -19 88 0 50 0 50
-16 27 -20 -27 -78 -54 -103 -46 -15 5 -51 54 -51 70 0 4 8 1 17 -6 15 -13 15
-12 0 12 -14 21 -15 30 -5 57 12 31 13 31 67 27 45 -3 56 -7 63 -24 4 -12 12
-21 18 -21 6 0 10 71 11 203 1 111 1 218 2 237 0 19 -3 73 -6 120 -5 54 -3 91
3 100 8 11 9 5 4 -23 -4 -24 -2 -43 6 -52 8 -10 10 -30 6 -59 -4 -27 -3 -47 4
-51 5 -3 10 2 10 14 0 10 16 52 35 92 19 41 35 83 35 94 0 11 7 40 16 64 9 26
14 69 12 102 -2 54 9 90 19 62 3 -7 11 -13 20 -13 11 0 13 -7 8 -32 l-6 -33
16 30 c9 17 20 34 25 39 10 10 163 11 197 0 21 -6 22 -8 7 -35 -12 -24 -13
-35 -1 -27 1 1 12 -4 24 -10 14 -8 20 -18 17 -27 -4 -9 0 -15 7 -15 37 -1 41
-17 15 -59 -15 -22 -31 -41 -36 -41 -6 0 -10 -8 -10 -17 1 -17 1 -17 11 0 5 9
15 17 20 17 16 0 33 21 84 99 63 98 105 193 105 238 0 22 -4 33 -8 26 -10 -15
-51 -9 -112 17 -69 28 -190 59 -196 49 -3 -5 -21 -9 -40 -9 -19 0 -55 -5 -80
-11 -35 -9 -47 -9 -61 2 -15 13 -16 11 -10 -13 6 -22 4 -26 -8 -22 -9 4 -15 0
-16 -7 -1 -26 -18 26 -18 59 -1 29 1 32 18 22 28 -15 31 -13 31 19 0 21 6 32
20 36 11 4 17 11 14 17 -4 6 -2 8 4 4 6 -3 14 -1 18 5 11 18 199 -14 284 -48
8 -4 18 -7 22 -7 3 -1 10 -4 14 -8 4 -5 16 -8 26 -8 10 0 18 -5 18 -11 0 -6 7
-8 16 -5 11 4 15 2 11 -8 -4 -10 -1 -13 8 -10 7 3 15 -2 18 -13 3 -15 6 -12
16 11 9 23 9 33 -4 52 -15 24 -35 32 -35 15 0 -5 5 -12 10 -14 6 -3 5 -4 -2
-3 -7 1 -14 20 -15 42 -2 24 -11 45 -23 56 -14 11 -16 18 -8 21 7 2 -2 11 -19
21 -18 9 -33 21 -33 26 0 6 -12 10 -27 10 -37 0 -145 34 -137 43 4 4 -5 7 -20
7 -16 0 -25 4 -21 10 3 6 -2 10 -12 10 -14 0 -11 5 12 21 17 12 22 19 12 15
-25 -8 -82 5 -66 15 18 11 6 21 -15 13 -19 -7 -22 -34 -3 -35 14 -1 -22 -17
-40 -18 -7 -1 -13 3 -13 9 0 5 6 8 13 6 6 -1 9 -1 4 1 -4 3 -5 9 -1 14 3 5 1
9 -5 9 -5 0 -11 -6 -14 -12 -3 -9 -8 -10 -15 -3 -7 7 -5 37 8 100 30 139 64
232 128 349 17 33 32 64 32 68 0 5 5 6 12 2 8 -5 9 0 6 14 -4 15 -2 22 7 22
15 0 58 53 69 85 6 16 9 17 17 5 8 -13 10 -13 19 0 8 11 9 7 4 -15 -7 -29 -6
-29 41 18 35 35 53 46 69 42 11 -2 16 -2 9 1 -24 11 -3 30 28 26 23 -3 28 -7
18 -14 -11 -7 -9 -8 4 -4 10 3 24 6 30 6 7 0 6 4 -2 9 -12 8 -9 11 12 16 15 4
27 13 27 21 0 8 5 14 11 14 5 0 8 -4 4 -9 -3 -6 14 -9 42 -7 27 2 54 -1 61 -7
8 -7 12 -5 12 7 0 9 6 16 13 17 31 2 52 9 55 19 2 5 8 8 13 4 5 -3 9 0 9 5 0
6 16 11 35 11 19 0 35 4 35 8 0 8 77 32 110 34 8 1 18 6 23 12 5 8 9 7 15 -2
7 -10 11 -10 22 2 11 14 15 14 40 -4 18 -13 31 -16 35 -10z m2365 -166 c6 -14
10 -40 10 -58 0 -40 16 -56 56 -53 25 2 29 -1 27 -20 -2 -17 2 -23 17 -23 26
0 39 -27 42 -91 3 -54 3 -54 -27 -54 -25 0 -30 4 -33 28 -3 23 -6 26 -18 16
-8 -6 -14 -18 -14 -25 0 -21 -13 -16 -37 15 -12 15 -20 36 -18 47 2 10 4 22 4
25 1 3 12 11 25 17 33 15 31 52 -1 52 -13 0 -23 -4 -23 -10 0 -15 -21 -12 -42
7 -19 17 -23 64 -12 122 8 38 31 41 44 5z m771 -24 c21 0 29 -5 29 -18 0 -10
9 -35 20 -57 23 -46 24 -54 8 -92 -6 -15 -11 -31 -10 -35 1 -5 -2 -8 -8 -8 -6
0 -10 16 -10 35 l0 36 -28 -21 c-57 -43 -143 -34 -162 16 -6 14 -17 32 -25 40
-25 25 0 64 41 64 12 0 29 12 39 26 14 22 22 25 47 20 17 -3 43 -6 59 -6z
m-817 -166 c3 -9 6 -27 6 -41 0 -21 -4 -24 -21 -20 -16 4 -19 2 -15 -10 4 -10
2 -13 -8 -10 -10 4 -7 -10 11 -49 29 -64 25 -101 -10 -81 -12 7 -29 18 -38 25
-15 12 -17 8 -15 -43 0 -30 6 -55 11 -55 6 0 21 -3 34 -7 17 -4 22 -3 17 5 -4
7 -1 12 9 12 9 0 14 -4 10 -10 -3 -5 0 -18 7 -29 11 -18 14 -17 61 25 27 24
55 44 61 44 7 0 36 -7 64 -15 44 -13 52 -20 52 -40 0 -52 -30 -79 -31 -27 0
22 -4 18 -27 -30 -29 -63 -44 -70 -85 -38 -14 11 -32 20 -40 20 -7 0 -22 9
-32 20 -10 11 -38 25 -62 31 -23 6 -48 17 -54 25 -7 9 -31 14 -63 14 -39 0
-61 6 -89 26 -41 28 -43 43 -9 59 12 5 25 18 28 28 3 10 19 26 34 36 38 22
127 106 140 131 13 24 45 26 54 4z m723 -140 c5 -13 15 -15 49 -9 42 6 44 5
44 -19 0 -21 5 -26 24 -26 21 0 24 -4 23 -37 -1 -21 2 -50 7 -65 7 -24 5 -29
-17 -37 -14 -5 -34 -19 -45 -31 -19 -21 -21 -21 -51 -6 -17 9 -33 27 -37 41
-4 15 -13 25 -24 25 -47 0 -51 74 -5 86 14 3 32 4 40 1 8 -4 17 -2 20 3 3 5
-3 11 -14 15 -23 7 -54 52 -46 65 9 15 25 12 32 -6z m-155 -57 c13 -21 8 -75
-9 -106 -14 -24 -25 -31 -49 -31 -17 0 -37 7 -44 15 -17 20 -8 124 11 136 17
12 81 1 91 -14z m-49 -174 c4 -3 2 -12 -4 -20 -14 -15 2 -18 18 -2 6 6 26 9
44 7 31 -3 34 -6 31 -33 -1 -16 -4 -48 -5 -71 -2 -22 -7 -46 -11 -52 -5 -8 3
-12 23 -12 30 0 31 -1 31 -47 0 -50 -11 -92 -41 -161 -24 -54 -24 -58 2 -65
11 -3 23 -15 26 -26 3 -12 14 -21 24 -21 27 0 31 -16 22 -80 -7 -46 -12 -55
-31 -58 -12 -2 -22 2 -22 9 0 7 -9 2 -19 -10 -24 -27 -41 -20 -41 16 0 15 -7
34 -15 43 -19 21 -31 80 -16 80 6 0 11 7 11 15 0 18 -17 20 -23 3 -12 -35 -87
78 -87 131 0 19 27 12 43 -11 8 -13 18 -20 22 -16 4 4 2 14 -5 23 -7 8 -10 22
-6 30 6 17 36 21 36 5 0 -15 26 -12 40 5 11 13 11 20 0 40 -7 14 -19 25 -27
25 -7 0 -13 5 -13 11 0 8 -5 8 -15 -1 -13 -11 -15 -8 -15 21 0 29 -19 81 -20
54 0 -5 -14 -11 -30 -12 -20 -1 -30 2 -30 12 0 25 -18 25 -48 0 -16 -14 -35
-25 -40 -25 -11 0 -72 60 -72 70 0 8 78 40 96 40 12 0 14 3 6 13 -17 20 -1 33
58 47 30 8 59 17 65 22 11 10 29 10 38 1z m-780 -248 c7 -14 27 -33 44 -43 83
-46 132 -85 143 -113 7 -17 20 -37 28 -45 9 -9 11 -21 6 -32 -7 -15 -8 -14
-11 5 -4 20 -30 39 -40 29 -8 -8 17 -74 30 -79 7 -3 21 1 32 9 34 25 52 17 64
-28 6 -24 11 -59 9 -78 -1 -19 -1 -52 0 -72 2 -34 5 -37 35 -40 27 -2 32 -7
32 -28 0 -20 -5 -25 -29 -27 -41 -3 -44 -11 -7 -24 30 -11 32 -15 27 -42 -3
-16 -6 -40 -6 -54 0 -20 -4 -23 -20 -18 -21 7 -60 -10 -60 -25 0 -6 18 -10 39
-10 l40 0 -6 -37 c-5 -40 -46 -128 -117 -258 -44 -78 -94 -130 -159 -165 -18
-9 -62 -33 -99 -53 -37 -19 -83 -41 -103 -47 -19 -6 -35 -15 -35 -20 0 -15
-145 -151 -188 -177 -23 -14 -39 -29 -36 -34 10 -17 63 -9 91 14 32 27 76 41
104 32 25 -8 25 -52 0 -60 -29 -9 -46 -34 -33 -47 7 -7 18 -2 37 18 14 16 35
38 46 49 15 16 17 23 7 33 -9 9 -8 12 5 12 10 0 30 8 44 17 28 19 82 41 121
50 16 4 22 1 22 -11 0 -28 -29 -88 -39 -81 -6 3 -15 -3 -20 -13 -6 -11 -24
-22 -41 -25 -18 -4 -30 -13 -30 -22 0 -14 -47 -94 -62 -105 -3 -3 -9 -19 -13
-35 -6 -29 -6 -29 10 -10 9 11 21 27 26 35 8 13 10 13 19 -2 8 -13 24 -18 52
-18 l41 0 -7 -66 c-8 -77 -43 -143 -79 -146 -12 0 -31 -2 -42 -2 -35 -3 -66
-26 -72 -56 -5 -28 -37 -50 -51 -35 -4 4 -14 37 -22 73 -14 61 -18 67 -42 70
-35 4 -48 21 -37 51 7 17 14 21 27 16 9 -4 28 -10 41 -13 20 -4 22 -2 16 18
-4 13 -2 32 5 46 17 31 6 54 -25 54 -24 0 -35 -15 -16 -22 13 -4 -15 -68 -29
-68 -7 0 -9 14 -5 43 4 30 2 48 -9 62 -14 19 -15 17 -16 -26 0 -25 -6 -53 -13
-63 -15 -21 -73 -24 -106 -7 -18 10 -21 9 -21 -9 0 -11 -7 -20 -15 -20 -16 0
-17 -2 -10 -22 4 -9 23 -12 69 -11 75 3 96 -11 78 -52 -7 -14 -18 -25 -27 -25
-22 0 -18 -17 9 -35 15 -10 26 -30 31 -58 4 -23 10 -35 12 -27 11 44 83 48 83
6 0 -35 -25 -52 -55 -38 -20 9 -25 9 -25 -2 0 -8 -3 -21 -6 -29 -3 -9 7 -28
25 -46 38 -39 39 -53 4 -85 -21 -20 -24 -28 -15 -39 9 -11 8 -18 -7 -31 -26
-23 -36 -16 -56 42 -10 26 -22 58 -28 70 -9 20 -8 25 6 33 20 11 22 47 6 83
-9 19 -9 32 1 56 11 26 10 33 -2 48 -9 9 -18 24 -21 32 -3 8 -6 2 -6 -13 -1
-34 -24 -32 -29 1 -2 12 -7 22 -12 22 -5 0 -15 3 -24 6 -11 4 -16 1 -16 -10 0
-9 -5 -16 -11 -16 -6 0 -8 -8 -5 -18 4 -10 2 -39 -3 -65 -4 -26 -5 -47 0 -47
4 0 9 10 11 23 2 18 10 23 44 25 38 3 43 1 52 -27 9 -26 7 -34 -20 -70 -16
-23 -36 -41 -44 -41 -7 0 -25 17 -38 37 -23 33 -26 34 -33 17 -4 -10 -13 -25
-21 -33 -8 -9 -10 -17 -4 -23 9 -9 4 -46 -13 -93 -5 -16 -5 -17 4 -5 9 12 11
11 12 -10 0 -14 3 -19 6 -12 7 18 59 43 77 36 17 -6 29 -32 21 -45 -3 -4 -16
-4 -30 1 -19 7 -26 5 -40 -16 -15 -24 -18 -24 -34 -10 -13 11 -18 12 -18 4 -1
-7 -6 -38 -13 -68 -6 -30 -13 -62 -14 -70 -13 -75 -21 -103 -33 -107 -8 -3
-12 -11 -9 -18 3 -8 -2 -16 -9 -19 -8 -3 -12 -12 -9 -21 3 -8 2 -15 -3 -15 -6
0 -22 -22 -36 -48 -14 -26 -61 -82 -104 -124 -43 -41 -98 -101 -123 -133 -25
-31 -57 -68 -72 -80 -16 -13 -28 -27 -28 -30 0 -3 -11 -21 -25 -39 -13 -18
-38 -62 -55 -98 -16 -37 -34 -69 -40 -73 -5 -3 -10 -17 -10 -29 0 -13 -7 -29
-15 -36 -8 -7 -12 -16 -9 -21 3 -5 1 -9 -3 -9 -5 0 -18 -21 -28 -46 -11 -26
-31 -64 -46 -84 -15 -21 -25 -41 -22 -44 4 -3 2 -6 -4 -6 -6 0 -8 -11 -5 -25
3 -19 0 -25 -14 -25 -11 -1 -32 -7 -49 -15 -29 -13 -28 -13 25 -8 30 3 82 13
115 23 33 11 96 26 140 35 118 24 148 60 190 229 21 85 64 188 83 200 5 3 -2
-27 -14 -66 -13 -40 -24 -87 -24 -104 0 -18 -13 -61 -30 -96 -16 -34 -30 -74
-30 -86 0 -39 -58 -88 -126 -106 -32 -9 -74 -21 -92 -27 -27 -9 -36 -8 -45 5
-16 21 -60 10 -54 -13 3 -14 -5 -15 -55 -13 -32 2 -65 -1 -72 -7 -7 -6 -30
-14 -52 -19 -44 -9 -51 -30 -16 -48 31 -15 11 -27 -23 -14 -14 5 -28 10 -31
10 -2 0 -4 -20 -4 -44 0 -26 -5 -46 -13 -49 -11 -4 -49 -102 -51 -132 -1 -5
-7 -28 -15 -50 -10 -28 -11 -40 -2 -43 16 -5 14 -29 -5 -36 -30 -12 -47 -7
-39 12 14 36 15 54 0 48 -8 -3 -16 3 -20 13 -10 33 -45 62 -62 52 -25 -13
-123 18 -123 39 0 5 -12 13 -27 16 -15 4 -36 18 -47 31 -13 17 -25 23 -40 19
-30 -8 -66 4 -66 21 0 8 -8 17 -18 20 -10 2 -26 17 -37 33 -11 16 -23 26 -29
23 -5 -3 -6 -1 -2 6 8 12 -14 71 -26 71 -5 0 -17 9 -28 20 -11 11 -27 20 -35
20 -8 0 -15 5 -15 11 0 5 -4 7 -10 4 -6 -3 -7 1 -4 9 3 9 1 16 -5 16 -6 0 -11
6 -11 14 0 8 -7 21 -15 30 -38 37 -40 137 -4 157 11 5 19 16 19 25 0 8 11 26
24 39 13 12 33 39 45 59 16 25 30 36 47 36 17 0 31 11 49 40 14 22 25 44 25
49 0 8 26 20 55 26 63 12 108 39 82 48 -6 2 2 7 18 11 17 3 51 13 76 21 26 8
71 15 100 15 30 0 67 7 83 15 15 8 40 15 55 15 14 0 33 5 41 10 24 15 -17 13
-77 -5 -51 -15 -123 -17 -123 -2 0 4 17 7 38 7 57 0 82 10 88 36 5 20 12 24
48 24 30 0 44 -5 54 -20 7 -11 17 -20 22 -20 13 0 13 37 0 45 -23 14 4 26 45
20 27 -5 45 -3 49 4 4 6 22 11 39 11 18 0 41 7 51 15 11 8 27 15 35 15 23 0
132 80 125 91 -3 5 -13 5 -25 -2 -21 -11 -59 -4 -59 11 0 11 42 35 54 32 6 -2
20 -1 33 2 19 5 21 10 13 30 -9 24 -5 36 12 36 5 0 6 -5 3 -10 -3 -6 1 -10 9
-10 9 0 16 6 16 13 0 6 16 22 35 35 19 12 35 29 35 37 0 8 12 21 28 29 l27 15
-25 2 c-14 1 -36 1 -50 0 -24 -2 -24 -1 -6 14 11 8 16 15 11 15 -5 0 1 9 13
20 12 12 22 25 22 31 0 6 9 8 23 4 15 -5 19 -4 12 3 -5 6 -35 16 -65 24 -39 9
-56 18 -58 31 -4 18 -3 18 22 2 15 -10 37 -15 52 -12 16 3 28 0 31 -9 3 -8 11
-14 19 -14 16 0 19 17 3 22 -17 6 2 38 22 38 10 0 19 -4 19 -8 0 -5 15 -6 33
-4 17 3 25 7 17 10 -8 2 -23 11 -32 20 -10 8 -18 12 -18 9 0 -4 -18 0 -40 9
-22 9 -51 13 -64 10 -22 -5 -45 8 -33 20 15 16 97 0 97 -19 0 -14 14 1 16 16
0 7 2 19 2 28 1 9 9 20 18 23 14 6 15 4 4 -9 -11 -13 -11 -16 0 -13 8 2 19 -7
25 -19 12 -28 25 -30 18 -3 -8 29 6 25 17 -5 11 -28 31 -32 49 -11 8 10 9 16
1 21 -17 11 -11 23 15 29 14 4 23 11 19 17 -3 6 3 13 15 16 11 3 23 14 27 25
3 11 12 17 20 14 8 -3 14 1 14 9 0 8 -6 15 -12 15 -7 1 -3 9 10 20 13 10 30
16 37 13 10 -3 15 2 15 16 0 13 -6 21 -17 21 -17 1 -17 1 0 14 9 7 17 21 17
30 0 10 11 32 24 49 13 18 26 52 29 77 3 24 11 46 16 48 14 5 14 29 0 34 -8 3
-7 13 4 34 9 17 18 59 20 93 3 35 10 68 17 74 10 10 11 6 8 -15 -3 -16 -1 -28
3 -28 12 0 11 47 -1 55 -5 3 -10 19 -10 36 0 16 5 29 10 29 6 0 10 -5 10 -12
0 -6 3 -8 7 -5 8 9 -27 48 -37 42 -10 -6 -20 57 -20 128 0 57 -23 127 -41 127
-5 0 -9 21 -9 48 0 26 -2 61 -6 77 -14 69 -16 107 -16 246 0 237 31 376 91
405 13 7 26 16 30 22 3 5 17 13 30 17 22 7 23 5 19 -19 -3 -15 -1 -29 4 -32 9
-6 59 21 94 49 10 9 38 31 61 51 45 36 65 43 148 50 75 7 121 -28 172 -129 33
-65 47 -143 45 -254 l-2 -105 21 21 c17 17 23 42 32 130 l11 110 -39 74 c-48
93 -76 127 -126 152 -35 17 -39 23 -39 56 0 20 7 65 16 101 9 36 18 91 20 123
2 32 6 63 9 68 11 17 34 9 48 -16z m909 -463 c5 -17 13 -34 18 -37 15 -9 13
-122 -2 -132 -37 -23 -63 2 -71 67 -3 25 -9 64 -13 87 -5 35 -4 42 12 45 35 8
48 1 56 -30z m-222 -85 c0 -7 14 -21 31 -31 28 -17 30 -21 24 -59 -8 -48 -34
-97 -51 -97 -6 0 -18 -7 -25 -16 -11 -13 -10 -17 5 -26 14 -8 16 -17 11 -44
-3 -21 -2 -34 5 -34 5 0 10 -16 10 -36 0 -31 -2 -35 -21 -29 -15 5 -19 4 -14
-4 4 -7 1 -18 -5 -26 -6 -8 -11 -29 -10 -47 3 -57 0 -68 -17 -68 -22 -1 -53
-23 -53 -38 0 -6 9 -16 19 -21 24 -13 45 -71 31 -85 -8 -8 -27 -12 -67 -15 -7
-1 -13 -11 -13 -23 0 -33 46 -57 83 -44 21 8 35 6 60 -6 18 -9 40 -19 51 -22
24 -8 14 -52 -21 -85 -20 -19 -24 -29 -18 -57 5 -30 3 -36 -27 -54 -20 -13
-42 -18 -56 -15 -13 3 -30 1 -37 -5 -8 -7 -21 -7 -39 0 -21 8 -26 7 -26 -5 0
-8 7 -15 15 -15 23 0 19 -13 -20 -64 -37 -47 -61 -58 -71 -31 -9 21 -21 19
-27 -6 -8 -31 -41 -21 -45 14 -3 21 1 27 17 27 29 0 34 15 12 34 -18 16 -21
16 -44 1 -24 -15 -26 -15 -32 5 -6 18 -12 21 -36 16 -26 -5 -30 -2 -49 41 -11
25 -20 47 -20 50 0 2 11 14 24 26 14 13 28 35 31 49 6 22 3 26 -22 31 -17 3
-34 0 -44 -9 -17 -15 -38 -18 -63 -8 -24 9 -21 65 3 71 11 3 25 19 30 36 6 16
37 55 69 86 31 31 75 80 97 109 22 29 45 59 52 66 7 7 15 27 19 42 9 40 22 54
50 54 14 0 31 12 44 30 16 22 27 29 41 25 21 -7 40 22 22 34 -6 3 -15 16 -21
28 -10 19 -7 26 23 59 19 20 35 42 35 49 0 6 11 17 25 23 30 14 33 32 5 32
-10 0 -24 -9 -30 -21 -11 -20 -37 -21 -32 0 1 6 -3 11 -10 11 -9 0 -9 3 0 12
7 7 12 21 12 33 0 30 19 45 57 45 23 0 33 5 33 16 0 8 5 12 10 9 6 -3 10 -12
10 -18z m432 -34 c17 -15 19 -15 31 1 9 12 23 17 47 14 33 -3 35 -5 35 -38 0
-33 -2 -35 -33 -35 -32 0 -33 -1 -27 -33 5 -26 3 -33 -7 -30 -7 3 -13 19 -13
36 0 50 -12 47 -45 -12 -18 -31 -38 -56 -46 -56 -18 0 -18 -9 3 -32 19 -21 5
-45 -20 -35 -28 10 -37 117 -11 138 8 7 15 26 14 43 -1 17 -2 37 -1 44 1 18
51 15 73 -5z m-5451 -113 c2 -33 4 -38 12 -46 4 -5 12 -3 16 5 7 10 16 10 50
0 23 -7 46 -18 53 -26 9 -11 7 -12 -8 -7 -15 6 -17 4 -7 -6 8 -9 19 -10 40 -2
15 6 22 11 15 11 -21 1 -3 21 19 21 21 0 26 16 7 23 -7 2 -10 7 -7 11 3 3 15
-4 28 -15 18 -17 25 -18 36 -9 22 18 18 2 -5 -23 -15 -15 -23 -18 -28 -10 -5
8 -13 9 -22 3 -11 -7 -12 -10 -2 -10 7 0 11 -4 7 -10 -3 -5 -12 -7 -19 -4 -7
3 -19 -2 -26 -11 -7 -8 -19 -15 -27 -15 -8 0 -11 -4 -8 -10 3 -5 2 -10 -3 -10
-5 0 -24 -13 -43 -29 -18 -16 -37 -27 -41 -25 -4 3 -8 0 -8 -6 0 -7 -7 -9 -15
-6 -9 3 -18 -1 -21 -9 -4 -8 -15 -15 -25 -15 -10 0 -19 -4 -19 -10 0 -5 -5 -9
-12 -7 -7 1 -12 -3 -13 -9 0 -15 -47 -64 -61 -64 -6 0 -21 -11 -34 -25 -13
-14 -29 -25 -37 -25 -7 0 -13 -6 -13 -12 0 -8 -5 -6 -11 4 -12 22 13 126 45
183 13 22 32 56 43 75 11 19 25 46 32 59 10 19 15 21 22 10 6 -10 9 -11 9 -1
0 6 7 12 15 12 9 0 15 6 14 13 -3 25 2 36 19 40 30 8 32 7 33 -13z m679 -328
c15 -54 12 -114 -5 -140 -15 -20 -15 -21 1 -15 9 3 20 0 25 -8 16 -26 10 -39
-20 -39 -21 0 -30 -6 -35 -22 -11 -42 -7 -58 14 -58 23 0 28 -35 6 -43 -20 -8
-57 3 -50 15 4 7 -8 8 -35 3 -34 -6 -41 -4 -41 10 0 9 -9 35 -20 57 -23 47
-25 64 -10 73 16 10 42 -16 37 -37 -4 -15 1 -18 34 -18 21 0 39 2 39 4 0 1 -5
17 -11 34 -8 23 -19 32 -42 38 -41 8 -57 21 -57 46 0 19 36 40 55 31 6 -2 1 3
-10 11 -13 11 -29 14 -52 10 -34 -6 -42 3 -21 24 6 6 18 8 27 3 9 -4 35 -6 59
-3 36 3 42 7 42 28 0 25 26 45 47 37 7 -3 17 -21 23 -41z m4525 -202 c-3 -5 0
-10 7 -11 7 0 3 -5 -9 -11 -11 -6 -23 -22 -26 -37 -7 -35 0 -40 19 -12 12 16
24 21 47 19 41 -4 47 -35 17 -84 -18 -28 -28 -34 -49 -32 -19 2 -28 11 -35 34
-6 19 -20 35 -37 43 -55 24 -41 89 16 75 13 -3 27 1 34 10 15 18 26 22 16 6z
m-5125 -137 c16 -21 20 -35 15 -60 -4 -25 -2 -33 7 -31 9 2 13 -9 13 -35 0
-23 5 -37 12 -37 7 0 18 -9 25 -20 7 -11 18 -20 25 -20 14 0 43 -41 47 -64 1
-9 13 -27 26 -41 29 -31 21 -40 -38 -39 -66 1 -217 61 -183 72 6 2 11 9 11 17
0 7 7 18 15 25 21 17 8 32 -15 18 -15 -9 -22 -10 -31 -1 -15 15 -3 33 22 33
10 0 19 5 19 10 0 6 -13 10 -30 10 -25 0 -30 4 -30 23 0 16 8 26 28 34 24 9
25 11 8 18 -13 6 -23 3 -33 -10 -12 -18 -14 -18 -30 -3 -22 22 -6 41 48 57 38
11 40 14 34 42 -8 37 7 38 35 2z m4490 -24 c0 -5 -12 -35 -26 -65 -19 -40 -29
-53 -37 -45 -19 19 -37 12 -37 -14 0 -31 -41 -60 -74 -51 -35 9 -38 28 -11 77
18 35 29 45 53 47 17 2 36 10 42 18 7 8 20 14 30 14 10 0 23 7 30 15 14 17 30
20 30 4z m-3545 -186 c17 -41 7 -65 -20 -43 -13 11 -15 9 -15 -14 0 -25 -1
-26 -16 -12 -21 21 -34 20 -34 -2 0 -23 19 -42 42 -42 10 0 18 -5 18 -11 0 -6
-9 -8 -20 -4 -29 9 -25 -13 5 -27 14 -6 25 -15 25 -21 0 -5 6 -7 14 -4 8 3 21
-2 30 -12 17 -19 22 -81 6 -81 -8 0 -9 -13 -1 -74 1 -12 16 3 16 17 0 5 5 12
12 14 7 3 15 -10 19 -31 3 -20 10 -39 15 -42 14 -8 10 -24 -5 -24 -8 0 -18 -4
-21 -10 -3 -6 1 -7 10 -4 19 8 45 -13 45 -35 0 -9 21 -56 45 -105 25 -50 45
-96 45 -105 0 -8 -15 -27 -32 -42 -25 -21 -29 -28 -15 -29 9 0 17 4 17 9 0 5
10 13 21 16 25 8 41 -12 47 -60 2 -16 12 -39 22 -50 56 -62 67 -168 27 -270
-13 -33 -27 -58 -33 -55 -9 5 -11 16 -13 68 -1 14 -6 22 -13 19 -8 -2 -14 -25
-15 -58 -2 -76 -5 -89 -18 -89 -6 0 -19 -6 -29 -13 -16 -12 -14 -13 17 -9 23
3 38 11 45 25 10 21 11 21 11 2 2 -42 -81 -103 -100 -74 -7 11 -9 9 -10 -6 0
-13 -3 -15 -6 -6 -5 11 -7 11 -14 0 -7 -11 -9 -10 -9 3 0 9 5 20 10 23 17 10
11 25 -9 25 -24 0 -70 -69 -53 -79 12 -7 5 -51 -7 -51 -4 0 -33 -16 -65 -35
-36 -22 -101 -46 -170 -64 -61 -17 -140 -39 -176 -50 -36 -12 -78 -21 -93 -21
-15 0 -54 -11 -87 -25 -39 -16 -78 -25 -114 -25 -36 0 -58 -5 -63 -13 -13 -23
-107 -64 -162 -72 -49 -7 -51 -6 -51 17 0 13 -9 32 -21 41 -18 16 -19 20 -6
35 22 26 28 52 13 52 -15 0 -26 30 -26 71 0 23 -4 26 -28 23 -15 -2 -21 -1
-14 2 15 7 6 24 -14 24 -8 0 -14 -10 -14 -24 0 -33 -12 -39 -38 -20 -27 18
-28 32 -4 50 16 12 16 14 -1 44 -9 18 -17 40 -17 49 0 30 -12 32 -27 4 -12
-23 -11 -29 5 -47 23 -24 18 -46 -8 -46 -14 0 -20 9 -22 37 -2 30 -9 41 -30
51 -15 7 -30 21 -33 31 -3 11 -26 39 -50 64 -25 24 -45 54 -45 65 0 11 -4 24
-10 27 -28 17 8 156 52 197 15 15 28 32 28 37 0 6 13 11 28 11 40 0 44 7 22
49 -10 21 -15 43 -11 49 10 16 39 5 46 -17 3 -10 12 -18 20 -18 22 0 27 28 9
48 -14 16 -15 19 -2 19 8 0 21 12 28 26 19 34 45 48 59 31 8 -10 1 -19 -29
-38 -36 -22 -39 -27 -34 -57 5 -25 2 -37 -12 -48 -18 -14 -17 -15 11 -13 46 2
49 0 34 -18 -12 -15 -12 -16 1 -8 35 20 39 26 28 45 -6 9 -8 26 -4 36 8 18 9
18 19 -3 11 -26 35 -29 62 -10 12 10 14 16 7 21 -7 4 -12 20 -12 35 0 21 6 31
23 36 l22 8 -23 4 c-26 5 -65 -23 -55 -40 3 -6 1 -7 -5 -3 -7 4 -12 23 -12 41
0 28 3 33 17 28 14 -6 15 0 9 47 -8 63 -12 70 -34 70 -30 0 -82 38 -82 60 0
22 28 28 47 9 8 -8 20 -1 44 22 19 18 35 27 37 21 7 -23 32 -12 32 14 0 22 2
25 15 14 8 -7 15 -9 15 -4 0 15 -17 36 -26 34 -5 -1 -10 3 -12 9 -2 6 1 11 6
11 6 0 8 18 6 40 -2 25 0 39 6 35 6 -3 10 -12 10 -20 0 -8 6 -17 12 -21 7 -4
10 -4 6 1 -10 11 10 35 28 35 8 0 19 -11 24 -25 10 -25 21 -31 34 -17 4 4 24
7 44 8 21 1 64 6 97 12 33 7 67 9 77 6 13 -4 38 -51 38 -71 0 -6 -63 29 -78
43 -18 19 -38 18 -46 -2 -4 -12 -1 -14 13 -9 14 4 23 0 31 -15 14 -26 3 -41
-13 -19 -25 33 -44 19 -51 -37 -7 -64 -1 -84 28 -84 11 0 28 -4 36 -10 12 -8
12 -10 -3 -16 -34 -13 -16 -23 38 -20 54 4 72 -4 60 -24 -5 -8 -12 -7 -23 2
-13 11 -13 9 2 -13 9 -15 16 -39 15 -55 -1 -16 1 -44 5 -61 7 -30 9 -32 24
-17 11 11 17 36 18 76 1 32 4 61 7 64 3 3 13 -7 22 -23 l16 -28 -5 33 c-3 17
-1 32 4 32 6 0 8 10 6 23 -3 12 -5 22 -6 22 -1 0 -3 24 -4 53 -2 39 -9 59 -27
78 -20 21 -21 27 -9 34 8 5 23 10 33 10 9 0 17 6 18 13 0 6 3 21 5 32 3 11 6
26 6 33 1 14 28 17 28 3 0 -5 7 -11 14 -14 11 -4 13 -1 9 11 -4 9 -11 20 -16
23 -15 10 1 27 43 49 47 24 64 25 56 5 -6 -18 5 -20 21 -4 6 6 9 18 6 26 -9
23 34 61 63 55 22 -4 25 -2 20 14 -6 21 63 104 87 104 8 0 25 9 38 20 36 29
57 25 74 -17z m4529 -763 c-10 -9 -60 29 -73 57 -9 16 -16 66 -18 117 -2 50
-7 94 -12 99 -15 15 9 67 32 72 67 14 61 28 69 -165 3 -96 4 -177 2 -180z
m-3860 -754 c34 -25 96 -105 154 -201 24 -38 63 -97 87 -130 48 -66 52 -75 31
-75 -8 0 -17 -8 -19 -17 -4 -14 -5 -12 -6 5 0 12 -5 22 -11 22 -5 0 -23 28
-40 63 -40 79 -71 129 -77 123 -6 -6 36 -97 55 -118 8 -10 11 -18 5 -18 -16 0
-41 32 -48 62 -4 15 -13 32 -20 38 -8 6 -12 17 -9 24 6 16 -32 105 -54 128
-54 56 -66 67 -74 62 -4 -3 -8 4 -8 15 0 11 -4 23 -10 26 -5 3 -10 11 -10 16
0 11 10 6 54 -25z m37 -147 c43 -47 51 -72 32 -112 l-14 -28 -40 23 c-65 36
-99 107 -68 144 20 24 51 15 90 -27z m202 -336 c-5 -29 1 -38 67 -105 40 -40
93 -98 118 -128 26 -30 70 -77 98 -105 114 -110 255 -287 278 -350 10 -28 -2
-13 -62 75 -47 69 -188 225 -428 473 l-94 97 3 53 c2 44 4 51 14 38 6 -8 9
-30 6 -48z"/>
<path d="M3091 4443 c12 -14 11 -15 -11 -8 -34 11 -84 8 -88 -4 -2 -6 -11 -11
-21 -11 -9 0 -25 -6 -36 -14 -28 -18 -75 -29 -75 -16 0 14 -36 12 -48 -3 -6
-7 -23 -14 -39 -15 -87 -8 -130 -20 -137 -39 -3 -8 -11 -11 -16 -8 -6 4 -10 3
-9 -2 1 -4 -2 -23 -6 -41 -8 -35 -25 -53 -25 -28 0 9 -5 16 -11 16 -6 0 -8 -9
-4 -20 4 -12 2 -20 -5 -20 -6 0 -11 12 -10 28 3 43 -1 59 -9 32 -4 -14 -4 -38
1 -54 4 -16 5 -41 3 -55 -5 -24 -5 -24 4 -5 14 33 31 39 31 12 1 -22 1 -22 15
-4 13 18 15 18 15 3 0 -16 3 -15 22 3 13 12 31 19 40 17 11 -3 20 2 23 15 5
13 11 16 18 10 14 -11 90 -15 83 -4 -7 12 269 8 285 -4 15 -12 19 -13 99 -19
49 -3 50 -3 13 4 -24 4 -46 11 -50 15 -12 11 74 -3 112 -18 38 -16 48 -32 15
-23 -11 3 -17 1 -14 -4 3 -5 22 -7 42 -5 20 3 29 3 19 0 -15 -5 -11 -9 17 -24
19 -9 55 -22 79 -29 25 -6 53 -13 63 -17 11 -3 9 1 -6 10 l-25 15 29 1 28 0
-26 35 c-15 19 -22 35 -15 35 8 0 8 4 -1 15 -16 20 -6 19 25 -1 33 -21 32 -8
0 18 -14 11 -23 24 -20 29 4 5 -5 9 -19 9 -14 0 -26 4 -26 8 0 5 -20 23 -44
40 -25 18 -47 43 -50 58 -4 14 -12 24 -19 21 -6 -2 -35 9 -63 25 -53 29 -80
36 -69 18 8 -12 10 -13 -49 5 -44 14 -47 13 -35 -2z"/>
<path d="M2805 4109 c-33 -12 -62 -24 -65 -27 -11 -15 -100 -51 -100 -41 0 8
-5 7 -15 -1 -8 -7 -15 -21 -15 -31 0 -24 -35 -60 -52 -54 -15 5 -26 -1 -51
-31 -17 -20 -17 -23 -1 -39 15 -14 15 -18 3 -27 -11 -8 -10 -9 4 -4 9 3 17 1
17 -4 0 -6 7 -10 15 -10 8 0 15 -9 15 -19 0 -14 9 -21 38 -26 24 -4 45 -16 61
-35 13 -17 33 -30 45 -30 17 0 18 2 6 10 -24 16 102 5 128 -11 21 -13 39 -8
28 9 -3 5 -25 19 -50 30 -26 13 -46 30 -49 42 -5 18 -2 21 14 17 21 -6 27 8 7
16 -8 3 -6 6 5 6 20 1 21 5 7 32 -9 16 -7 19 12 19 19 0 20 2 8 10 -11 7 -6
10 20 11 19 0 48 2 65 4 16 2 35 -1 42 -7 8 -6 13 -7 13 -1 0 10 19 12 103 13
106 2 157 -11 191 -49 10 -11 23 -18 27 -15 5 3 9 0 9 -6 0 -6 4 -9 9 -5 5 3
13 0 16 -6 4 -5 13 -8 21 -5 8 3 14 2 14 -3 0 -4 6 -8 13 -9 6 0 23 -3 37 -7
25 -6 25 -6 -2 12 -29 18 -36 33 -17 33 6 0 -3 15 -20 33 -26 25 -29 33 -16
35 9 2 21 -1 28 -6 7 -5 21 -12 32 -16 14 -4 11 2 -12 21 -136 119 -185 147
-315 173 -119 25 -197 25 -273 -1z"/>
<path d="M2415 3540 c-11 -17 15 -50 40 -50 13 0 37 -11 53 -25 54 -45 54
-132 1 -164 -20 -12 -61 -20 -127 -25 -53 -4 -101 -11 -106 -16 -4 -4 -15 -6
-23 -3 -15 6 -45 -26 -36 -39 2 -5 -3 -11 -11 -14 -9 -3 -16 -15 -16 -26 0
-14 -5 -18 -15 -14 -8 3 -15 1 -15 -4 0 -6 4 -10 9 -10 4 0 6 -11 3 -25 -5
-27 -7 -28 -37 -16 -14 6 -20 17 -20 37 0 24 -4 29 -23 29 -34 0 -73 42 -66
70 4 17 -2 28 -26 45 -35 25 -56 17 -24 -9 l22 -18 -22 -13 c-14 -9 -17 -15
-8 -18 8 -2 2 -14 -18 -32 -16 -15 -30 -36 -30 -47 -1 -10 -19 -30 -40 -45
-22 -15 -40 -34 -40 -41 0 -7 -13 -26 -30 -42 -16 -16 -30 -35 -30 -42 0 -7
-4 -13 -9 -13 -5 0 -19 -34 -32 -75 -16 -49 -28 -73 -36 -70 -7 2 -13 -2 -13
-10 0 -8 5 -15 10 -15 6 0 10 -20 10 -45 0 -25 3 -45 8 -45 4 0 5 -32 4 -71
-4 -69 -3 -71 18 -64 15 5 20 4 16 -4 -16 -25 14 -8 52 29 42 42 52 41 66 -7
4 -12 21 -29 38 -37 28 -15 32 -14 43 1 9 12 21 15 53 10 22 -4 47 -10 55 -13
10 -3 17 1 20 13 4 16 5 16 6 1 1 -22 19 -24 27 -3 7 18 40 20 48 3 3 -7 4 -1
1 14 -4 22 0 28 23 36 28 9 72 0 72 -16 0 -5 7 -9 15 -9 8 0 15 3 15 7 0 4 7
7 15 7 8 0 15 -4 15 -9 0 -5 9 -7 19 -3 11 3 22 1 26 -5 5 -8 11 -8 21 1 8 6
14 8 14 3 0 -5 4 -2 10 6 8 12 11 12 27 -2 38 -33 107 -26 205 22 54 26 94 39
106 36 28 -9 52 3 52 26 0 10 5 16 10 13 13 -8 13 -2 -1 29 -15 32 -64 49
-115 41 -28 -5 -60 1 -117 20 -43 14 -91 27 -107 28 -15 1 -26 6 -23 11 3 4
-9 5 -26 1 -20 -4 -31 -3 -31 5 0 6 -4 8 -10 5 -17 -11 -11 -25 10 -25 27 0
70 -28 70 -46 0 -19 -40 -44 -72 -44 -21 0 -33 8 -47 31 l-19 31 -7 -31 c-4
-17 -15 -36 -25 -41 -28 -15 -249 -8 -259 9 -6 8 -16 11 -26 7 -24 -9 -55 2
-55 19 0 17 40 56 50 50 5 -3 19 4 31 14 l24 19 -72 0 c-40 0 -73 -3 -73 -7 0
-4 -17 -15 -37 -26 -27 -15 -37 -17 -41 -7 -2 6 -8 10 -13 7 -5 -4 -6 2 -2 11
4 12 3 15 -5 10 -40 -24 23 78 66 107 52 37 140 56 167 38 20 -15 95 -12 129
4 20 10 43 15 51 11 8 -3 15 -1 15 4 0 15 37 12 43 -4 6 -14 57 -19 57 -6 0 5
11 7 25 5 14 -1 25 1 25 5 0 4 7 7 15 7 11 0 12 -4 4 -14 -9 -10 -8 -13 1 -13
7 0 20 -8 29 -18 9 -10 33 -23 54 -29 32 -10 37 -9 37 5 0 15 2 15 10 2 5 -8
17 -15 27 -15 10 0 24 -4 32 -9 11 -7 13 -5 8 10 -6 16 -4 15 12 -3 11 -13 24
-23 30 -23 6 0 11 -6 11 -12 1 -7 7 -2 14 12 9 15 11 32 6 46 -5 12 -7 24 -5
25 1 2 -20 27 -48 54 -27 28 -47 42 -43 31 4 -13 2 -17 -8 -13 -8 3 -17 3 -19
-1 -2 -4 -2 -1 -1 6 2 7 -1 23 -6 36 -5 15 -5 27 3 35 8 8 5 11 -11 11 -23 0
-30 14 -12 25 6 4 7 11 4 17 -4 7 -10 5 -16 -6 -11 -20 -32 -21 -24 -1 3 9 -1
18 -9 21 -11 4 -12 12 -4 32 6 15 11 29 11 32 1 3 20 22 43 42 41 36 62 82 44
94 -5 3 -9 15 -9 28 0 28 -49 106 -85 134 -29 23 -60 29 -70 12z"/>
<path d="M2080 2431 c0 -6 -9 -8 -20 -6 -16 3 -19 1 -12 -12 5 -9 7 -24 5 -34
-4 -15 1 -19 23 -20 16 -1 36 0 43 1 12 1 12 -1 3 -13 -9 -11 -8 -18 8 -32 19
-17 20 -17 30 6 8 19 9 20 7 4 -2 -11 5 -27 14 -35 9 -8 19 -24 22 -35 3 -14
5 -10 6 11 1 34 28 54 43 32 6 -10 8 -8 8 5 0 9 -4 17 -10 17 -5 0 -10 9 -10
20 0 11 5 20 10 20 6 0 10 8 10 18 0 14 2 15 10 2 11 -18 23 -8 15 13 -8 18
-33 16 -46 -4 -8 -10 -8 -7 -4 10 5 16 4 21 -4 17 -6 -4 -11 -4 -11 1 0 4 -20
9 -45 10 -25 1 -45 -3 -45 -8 0 -6 -7 -3 -16 5 -17 18 -34 21 -34 7z"/>
<path d="M4746 3644 c-3 -9 -6 -35 -6 -59 0 -24 -4 -47 -10 -50 -5 -3 -10 -18
-10 -33 0 -29 -27 -107 -54 -157 -9 -16 -16 -40 -16 -52 0 -42 -50 -128 -112
-193 l-61 -65 -10 33 c-15 50 -30 39 -22 -15 8 -54 20 -67 49 -50 12 6 25 10
30 9 4 -2 17 8 28 20 10 13 32 37 47 53 72 78 148 307 158 483 5 88 2 110 -11
76z"/>
<path d="M4338 3564 c-10 -21 -10 -28 2 -38 23 -17 42 -76 44 -131 1 -27 5
-55 9 -62 4 -6 0 -18 -8 -26 -8 -9 -15 -21 -15 -27 0 -7 -7 -9 -16 -6 -37 14
-105 -65 -104 -121 0 -26 -12 -110 -21 -142 -4 -15 16 -21 135 -40 68 -11 76
-9 69 19 -7 25 -52 50 -89 50 -31 0 -94 36 -94 53 0 24 16 35 60 44 32 6 48
15 55 30 8 20 16 22 63 20 73 -3 92 19 87 101 -3 31 -4 60 -5 64 0 4 -8 9 -19
13 -34 10 -71 77 -71 126 0 35 -5 50 -22 66 -39 35 -47 36 -60 7z"/>
<path d="M661 1531 c-9 -6 -12 -19 -8 -39 8 -38 -15 -62 -43 -44 -15 9 -19 7
-24 -14 -4 -13 -11 -24 -16 -24 -21 0 -9 -55 15 -73 23 -16 24 -16 39 5 16 22
22 20 64 -19 7 -7 18 -16 25 -20 20 -13 37 -51 31 -68 -4 -8 -1 -15 6 -15 9 0
10 13 5 48 -9 59 -8 58 -44 65 -56 12 -65 77 -14 100 l26 12 -24 5 c-21 6 -24
11 -21 48 1 23 1 42 0 42 -2 0 -9 -4 -17 -9z"/>
</g>
</svg>
